<?xml version="1.0" encoding="utf-8"?>
<!-- Generator: Adobe Illustrator 25.0.0, SVG Export Plug-In . SVG Version: 6.00 Build 0)  -->
<svg version="1.1" id="Слой_1" xmlns="http://www.w3.org/2000/svg" xmlns:xlink="http://www.w3.org/1999/xlink" x="0px" y="0px"
	 viewBox="0 0 110.8 65.3" style="enable-background:new 0 0 110.8 65.3;" xml:space="preserve">
<style type="text/css">
	.st0{display:none;}
	.st1{fill:none;stroke:#020202;stroke-miterlimit:10;}
	.st2{stroke:#020202;stroke-miterlimit:10;}
	.st3{fill:none;stroke:#000000;stroke-miterlimit:10;}
</style>
<g id="Слой_8">
	<polygon class="st1" points="105.5,11.1 105.5,17.1 101.1,14.1 	"/>
	<line class="st1" x1="101.1" y1="14.1" x2="8.9" y2="14.1"/>
	<line class="st1" x1="8.9" y1="27.7" x2="69.8" y2="27.7"/>
	<line class="st1" x1="69.5" y1="42.3" x2="8.9" y2="42.3"/>
	<line class="st1" x1="8.9" y1="56" x2="101.4" y2="56"/>
	<polygon class="st2" points="101.4,53.2 101.4,58.8 106.9,56 	"/>
	<line class="st1" x1="3" y1="19.3" x2="3" y2="22.9"/>
	<line class="st1" x1="75.5" y1="33.7" x2="75.5" y2="36.1"/>
	<line class="st1" x1="3" y1="47.5" x2="3" y2="51.2"/>
	<path class="st1" d="M3,19.3c0-2.9,2.9-5.2,6.4-5.2"/>
	<path class="st1" d="M3,22.9c0,2.6,2.7,4.8,6,4.8"/>
	<path class="st1" d="M75.5,33.7c0-3.3-2.7-6-6-6"/>
	<path class="st1" d="M75.5,36.1c0,3.4-2.7,6.2-6,6.2"/>
	<path class="st1" d="M3,47.5c0-2.9,2.7-5.2,6-5.2"/>
	<path class="st1" d="M3,51.2C3,53.8,5.7,56,9,56"/>
</g>
</svg>
