<?xml version="1.0" encoding="utf-8"?>
<!-- Generator: Adobe Illustrator 25.2.3, SVG Export Plug-In . SVG Version: 6.00 Build 0)  -->
<svg version="1.1" id="Слой_1" xmlns="http://www.w3.org/2000/svg" xmlns:xlink="http://www.w3.org/1999/xlink" x="0px" y="0px"
	 viewBox="0 0 110.8 65.3" style="enable-background:new 0 0 110.8 65.3;" xml:space="preserve">
<style type="text/css">
	.st0{display:none;}
	.st1{display:inline;fill:none;stroke:#000000;stroke-miterlimit:10;}
	.st2{display:inline;stroke:#000000;stroke-miterlimit:10;}
	.st3{fill:none;stroke:#000000;stroke-miterlimit:10;}
</style>

<g id="Слой_4">
	<polyline class="st3" points="36.46,39.55 10.5,39.5 10.5,61.36 68.93,61.36 68.93,17.75 36.3,17.75 36.5,44.5 	"/>
	<line class="st3" x1="21.07" y1="39.52" x2="21.07" y2="35.65"/>
	<polygon class="st3" points="17.11,35.65 24.53,35.65 21.07,29.62 	"/>
	<polygon class="st3" points="14.5,24.5 14.5,31.4 20.5,28.5 	"/>
	<line class="st3" x1="14.5" y1="27.95" x2="7.02" y2="27.95"/>
	<polyline class="st3" points="36.37,27.54 68.93,27.95 63.1,34.56 	"/>
	<polyline class="st3" points="43.42,27.74 36.37,34.56 68.93,34.56 	"/>
	<line class="st3" x1="50.04" y1="27.95" x2="43.91" y2="34.56"/>
	<line class="st3" x1="56.37" y1="27.95" x2="50.04" y2="34.56"/>
	<line class="st3" x1="63.1" y1="27.95" x2="56.37" y2="34.56"/>
	<line class="st3" x1="64.5" y1="17.5" x2="64.5" y2="11.62"/>
	<polygon class="st3" points="60.92,11.62 67.5,11.5 64.5,6.08 	"/>
	<polygon class="st3" points="70.5,2.5 70.5,8.25 64.5,5.38 	"/>
	<line class="st3" x1="70.5" y1="5.38" x2="75.26" y2="5.38"/>
</g>
</svg>
