<?xml version="1.0" encoding="utf-8"?>
<!-- Generator: Adobe Illustrator 25.0.0, SVG Export Plug-In . SVG Version: 6.00 Build 0)  -->
<svg version="1.1" id="Слой_1" xmlns="http://www.w3.org/2000/svg" xmlns:xlink="http://www.w3.org/1999/xlink" x="0px" y="0px"
	 viewBox="0 0 110.8 65.3" style="enable-background:new 0 0 110.8 65.3;" xml:space="preserve">
<style type="text/css">
	.st0{display:none;}
	.st1{fill:none;stroke:#020202;stroke-miterlimit:10;}
	.st2{stroke:#020202;stroke-miterlimit:10;}
	.st3{fill:none;stroke:#000000;stroke-miterlimit:10;}
</style>
<g id="Слой_8">
	<polygon class="st1" points="26.9,30.8 26.9,57.3 81,57.3 81,30.8 35.6,30.8 	"/>
	<path class="st1" d="M35.8,20.3l-0.2,10.5L35.8,20.3z"/>
	<polygon class="st1" points="30.4,20.3 40.3,20.3 35.8,11 	"/>
	<polyline class="st1" points="25.3,8.6 25.3,3.9 35.4,9.6 25.3,13.8 25.3,8.6 15.9,8.6 	"/>
	<polyline class="st1" points="72.1,20.3 73,20.3 77.2,20.3 72.1,12.6 67.4,20.3 72.1,20.3 72.1,30.2 	"/>
	<polyline class="st1" points="82.2,8.9 82.2,7.9 82.2,4.4 72.9,10.1 82.2,13.8 82.2,8.9 91.5,8.9  "/>
	<polyline class="st1" points="70.8,57.3 81,46.6 26.9,46.6 	"/>
	<line class="st1" x1="60" y1="57.3" x2="70.5" y2="46.6"/>
	<line class="st1" x1="49.7" y1="57.3" x2="60" y2="46.6"/>
	<line class="st1" x1="38.6" y1="57.3" x2="48.6" y2="46.6"/>
	<polyline class="st1" points="38,46.6 26.9,57.3 26.9,62.6 	"/>
	<line class="st1" x1="81" y1="57.3" x2="81" y2="63.9"/>
</g>
</svg>
