<?xml version="1.0" encoding="utf-8"?>
<!-- Generator: Adobe Illustrator 25.0.0, SVG Export Plug-In . SVG Version: 6.00 Build 0)  -->
<svg version="1.1" id="Слой_1" xmlns="http://www.w3.org/2000/svg" xmlns:xlink="http://www.w3.org/1999/xlink" x="0px" y="0px"
	 viewBox="0 0 110.8 65.3" style="enable-background:new 0 0 110.8 65.3;" xml:space="preserve">
<style type="text/css">
	.st0{display:none;}
	.st1{fill:none;stroke:#020202;stroke-miterlimit:10;}
	.st2{stroke:#020202;stroke-miterlimit:10;}
	.st3{fill:none;stroke:#000000;stroke-miterlimit:10;}
</style>
<g id="Слой_8">
	<line class="st1" x1="51.5" y1="0.5" x2="51.5" y2="15.9"/>
	<polygon class="st2" points="47.9,4.3 54.9,4.3 51.5,10.3 	"/>
	<line class="st1" x1="25.5" y1="15.9" x2="78.9" y2="15.9"/>
	<path class="st1" d="M78.7,15.9c7.2,0,12.9,5.3,12.9,11.8v6.1c0,6-4.9,10.8-11,10.8H26.4"/>
	<line class="st1" x1="14.6" y1="27.3" x2="14.6" y2="33.4"/>
	<path class="st1" d="M14.6,33.4c0,6.2,5.3,11.2,11.8,11.2"/>
	<path class="st1" d="M14.6,27.3c0-6.3,4.8-11.3,10.8-11.3"/>
	<line class="st1" x1="103.1" y1="37.6" x2="26.9" y2="37.6"/>
	<line class="st1" x1="21.3" y1="28.8" x2="21.3" y2="32.5"/>
	<path class="st1" d="M21.3,32.5c0,2.8,2.5,5,5.6,5"/>
	<path class="st1" d="M21.3,28.8c0-3.1,2.5-5.7,5.6-5.7"/>
	<polyline class="st2" points="103.6,23.2 103.1,22.7 99.5,21.2 99.5,25.5 103.6,23.2 26.9,23.2 	"/>
	<polygon class="st2" points="98.8,35.5 95.5,37.6 98.8,39 	"/>
	<line class="st1" x1="51.8" y1="45" x2="51.8" y2="59.9"/>
	<polygon class="st2" points="48.2,49 55.2,49 51.7,54.4 	"/>
</g>
</svg>
