<?xml version="1.0" encoding="utf-8"?>
<!-- Generator: Adobe Illustrator 25.0.0, SVG Export Plug-In . SVG Version: 6.00 Build 0)  -->
<svg version="1.1" id="Слой_1" xmlns="http://www.w3.org/2000/svg" xmlns:xlink="http://www.w3.org/1999/xlink" x="0px" y="0px"
	 viewBox="0 0 110.8 65.3" style="enable-background:new 0 0 110.8 65.3;" xml:space="preserve">
<style type="text/css">
	.st0{display:none;}
	.st1{fill:none;stroke:#020202;stroke-miterlimit:10;}
	.st2{stroke:#020202;stroke-miterlimit:10;}
	.st3{fill:none;stroke:#000000;stroke-miterlimit:10;}
</style>
<g id="Слой_2_1_">
</g>
<g id="Слой_3" class="st0">
</g>
<g id="Слой_4">
</g>
<g id="Слой_5">
</g>
<g id="Слой_6" class="st0">
</g>
<g id="Слой_7">
</g>
<g id="Слой_8">
	<polygon class="st1" points="518.3,-456.1 518.3,-452.9 518.3,-449.7 524,-452.9 	"/>
	<line class="st1" x1="406.6" y1="-453.6" x2="518.3" y2="-453.6"/>
	<line class="st1" x1="406.6" y1="-436.5" x2="479.6" y2="-436.5"/>
	<line class="st1" x1="479.6" y1="-419.3" x2="406.6" y2="-419.3"/>
	<line class="st1" x1="487.2" y1="-429.8" x2="487.2" y2="-426.7"/>
	<polygon class="st2" points="516.9,-402.7 523.2,-399.6 523.2,-405.9 	"/>
	<polyline class="st1" points="406.6,-402.7 516.1,-402.7 516.9,-402.7 	"/>
	<line class="st1" x1="398.9" y1="-413.9" x2="398.9" y2="-408"/>
	<line class="st1" x1="398.9" y1="-447.4" x2="398.9" y2="-442"/>
	<path class="st1" d="M398.9-442c0,3.1,3.9,5.5,8.7,5.5"/>
	<path class="st1" d="M398.9-447.4c0-3.4,3.5-6.2,7.8-6.2"/>
	<path class="st1" d="M398.9-413.9c0-3,3.5-5.4,7.8-5.4"/>
	<path class="st1" d="M398.9-408c0,2.9,3.5,5.3,7.8,5.3"/>
	<path class="st1" d="M487.2-426.7c0,4.1-3.4,7.4-7.6,7.4"/>
	<path class="st1" d="M487.2-429.8c0-3.7-3.4-6.7-7.6-6.7"/>
	<polygon class="st2" points="417.2,-372.3 422.2,-363.7 427.5,-372.3 	"/>
	<polygon class="st2" points="497.2,-339.6 497.2,-330.5 504.9,-335 	"/>
	<polygon class="st2" points="432,-319.5 434.7,-314.4 438.4,-319.5 	"/>
	<polygon class="st2" points="503.4,-294.1 503.4,-287.9 509.5,-291 	"/>
	<polygon class="st2" points="404.4,-294.1 404.4,-287.9 409.8,-291.8 	"/>
	<polygon class="st2" points="432,-256.9 435.8,-251.9 439.1,-256.9 	"/>
	<polygon class="st2" points="478.5,-254.4 475.5,-249.9 482.1,-249.9 	"/>
	<polygon class="st2" points="503.4,-231.6 503.4,-225.5 509.5,-228.5 	"/>
	<polygon class="st2" points="404.9,-231.6 404.9,-225.5 409.8,-228.5 	"/>
	<polygon class="st2" points="477.8,-190.8 474.6,-185.8 481.4,-185.8 	"/>
	<polygon class="st2" points="503.4,-167.9 503.4,-161.5 509.5,-164.7 	"/>
	<polygon class="st2" points="404.3,-167.9 404.3,-161.5 409.8,-164.7 	"/>
	<polygon class="st2" points="434.6,-130.3 444.6,-130.3 439.6,-121.5 	"/>
	<polygon class="st2" points="491,-115.7 491,-105.9 499.7,-110.8 	"/>
	<polygon class="st2" points="440.9,254 440.9,261.2 446.3,257.6 	"/>
	<polygon class="st2" points="491.3,243.7 491.3,250.9 497.9,247.3 	"/>
	<line class="st1" x1="412" y1="-353.7" x2="481.3" y2="-353.7"/>
	<line class="st1" x1="481.3" y1="-329.7" x2="412" y2="-329.7"/>
	<line class="st1" x1="403.2" y1="-343.7" x2="403.2" y2="-339.6"/>
	<line class="st1" x1="491.3" y1="-343.7" x2="491.3" y2="-339.6"/>
	<line class="st1" x1="403.2" y1="-341.6" x2="491.3" y2="-341.6"/>
	<line class="st1" x1="469.8" y1="-337.7" x2="457.4" y2="-337.7"/>
	<line class="st1" x1="444.7" y1="-337.7" x2="430.9" y2="-337.7"/>
	<line class="st1" x1="421.5" y1="-337.7" x2="409.8" y2="-337.7"/>
	<line class="st1" x1="482.7" y1="-337.7" x2="485.4" y2="-337.7"/>
	<line class="st1" x1="479.2" y1="-333.5" x2="467.3" y2="-333.5"/>
	<line class="st1" x1="459.1" y1="-333.5" x2="441.2" y2="-333.5"/>
	<line class="st1" x1="433.3" y1="-333.5" x2="415.7" y2="-333.5"/>
	<path class="st1" d="M403.2-343.7c0-5.5,4.3-10,9.6-10"/>
	<path class="st1" d="M403.2-339.6c0,5.5,3.9,9.9,8.8,9.9"/>
	<path class="st1" d="M491.3-339.6c0,5.5-4.5,9.9-10,9.9"/>
	<path class="st1" d="M491.3-343.7c0-5.5-4.5-10-10-10"/>
	<line class="st1" x1="497.2" y1="-335" x2="490.2" y2="-335"/>
	<line class="st1" x1="504.9" y1="-335" x2="513.2" y2="-335"/>
	<line class="st1" x1="427.2" y1="-307" x2="486.3" y2="-307"/>
	<line class="st1" x1="487.6" y1="-276.8" x2="428.7" y2="-276.8"/>
	<line class="st1" x1="409.8" y1="-291.8" x2="503.4" y2="-291.8"/>
	<line class="st1" x1="416.3" y1="-295.1" x2="416.3" y2="-288.8"/>
	<line class="st1" x1="499.1" y1="-294.1" x2="499.1" y2="-288.8"/>
	<line class="st1" x1="509.5" y1="-291" x2="514.6" y2="-291"/>
	<line class="st1" x1="404.4" y1="-291.4" x2="400.4" y2="-291.4"/>
	<path class="st1" d="M416.3-295.1c0-6.6,4.9-11.9,11-11.9"/>
	<path class="st1" d="M416.3-288.8c0,6.6,5.5,12,12.4,12"/>
	<path class="st1" d="M499.1-288.8c0,6.6-5.1,12-11.5,12"/>
	<path class="st1" d="M499.1-294.1c0-7.1-5.7-12.9-12.8-12.9"/>
	<polyline class="st1" points="435.5,-244.1 435.5,-260.1 435.5,-256.9 	"/>
	<line class="st1" x1="434.7" y1="-314.4" x2="434.7" y2="-307"/>
	<line class="st1" x1="478" y1="-312.7" x2="478" y2="-307"/>
	<line class="st1" x1="435.2" y1="-319.5" x2="435.2" y2="-322.8"/>
	<line class="st1" x1="478.5" y1="-254.4" x2="478.5" y2="-260.1"/>
	<line class="st1" x1="427.2" y1="-244.1" x2="487.6" y2="-244.1"/>
	<polyline class="st1" points="435.5,-244.1 435.5,-230.2 478.5,-230.2 478.5,-244.1 478.5,-249.9 	"/>
	<line class="st1" x1="499.1" y1="-231.6" x2="499.1" y2="-225.5"/>
	<line class="st1" x1="499.1" y1="-228.5" x2="503.4" y2="-228.5"/>
	<line class="st1" x1="509.5" y1="-228.5" x2="514.6" y2="-228.5"/>
	<line class="st1" x1="417.1" y1="-231.6" x2="417.1" y2="-225.5"/>
	<line class="st1" x1="409.8" y1="-228.5" x2="416.7" y2="-228.5"/>
	<line class="st1" x1="404.4" y1="-228.5" x2="401.6" y2="-228.5"/>
	<line class="st1" x1="427.2" y1="-214.6" x2="488.1" y2="-214.6"/>
	<path class="st1" d="M417.1-231.6c0-6.9,4.5-12.5,10.1-12.5"/>
	<path class="st1" d="M417.1-225.5c0,6,4.5,11,10.1,11"/>
	<path class="st1" d="M499.1-226.2c0,6.4-4.9,11.6-10.9,11.6"/>
	<path class="st1" d="M499.1-231.6c0-6.9-5.5-12.5-12.3-12.5"/>
	<line class="st1" x1="415.7" y1="-167.9" x2="415.7" y2="-161"/>
	<line class="st1" x1="498.3" y1="-167.9" x2="498.3" y2="-161"/>
	<line class="st1" x1="509.5" y1="-164.7" x2="514.6" y2="-164.7"/>
	<polyline class="st1" points="401.6,-164.4 415.7,-164.7 498.3,-164.4 503.4,-164.4 	"/>
	<line class="st1" x1="427.2" y1="-180.3" x2="487.6" y2="-180.3"/>
	<line class="st1" x1="487.6" y1="-149.7" x2="427.2" y2="-149.7"/>
	<path class="st1" d="M415.7-167.9c0-6.9,5.4-12.4,12.1-12.4"/>
	<path class="st1" d="M415.7-161c0,6.3,5.4,11.3,12.1,11.3"/>
	<path class="st1" d="M498.3-161c0,6.3-4.8,11.3-10.7,11.3"/>
	<path class="st1" d="M498.3-167.9c0-6.9-4.8-12.4-10.7-12.4"/>
	<path class="st1" d="M434.6-119.2c0.4,0,43.9,0,43.9,0v17.5H432v-17.5H434.6z"/>
	<line class="st1" x1="448.2" y1="-119.2" x2="448.2" y2="-101.7"/>
	<line class="st1" x1="463.5" y1="-119.2" x2="463.5" y2="-101.7"/>
	<polyline class="st1" points="452.5,-119.2 456,-115.7 459.1,-119.2 	"/>
	<polyline class="st1" points="452.5,-101.7 455.8,-105.2 458.3,-101.7 	"/>
	<polyline class="st1" points="448.2,-112.9 450.7,-110.8 448.2,-108.3 	"/>
	<polyline class="st1" points="463.5,-108.3 460.2,-110.6 463.5,-112.9 	"/>
	<polygon class="st1" points="456,-115.7 460.2,-110.6 455.8,-105.2 450.7,-110.8 	"/>
	<polygon class="st1" points="476.7,-68.2 469,-63.7 469,-59.6 476.7,-56.3 	"/>
	<line class="st1" x1="490" y1="-62.4" x2="476.7" y2="-62.4"/>
	<line class="st1" x1="442.1" y1="-62.4" x2="457.4" y2="-62.4"/>
	<polyline class="st1" points="469,-59.6 464.8,-59.6 464.8,-63.7 469,-63.7 	"/>
	<polyline class="st1" points="464.8,-59.6 457.4,-56.3 457.4,-68.2 464.8,-63.7 	"/>
	<circle class="st1" cx="475.7" cy="-21.4" r="2.2"/>
	<path class="st1" d="M473.5-22.6l-11-5.7c0,0-1,15.6,0,14.6c1.1-0.9,11-6.6,11-6.6"/>
	<line class="st1" x1="462.2" y1="-22" x2="443" y2="-22"/>
	<polyline class="st1" points="476.7,-19.1 483.3,-8.2 469,-8.2 474.9,-19.1 	"/>
	<line class="st1" x1="475.2" y1="-8.2" x2="475.2" y2="9"/>
	<polygon class="st1" points="458.5,37.4 458.5,52.2 472,46.1 	"/>
	<polygon class="st1" points="465.3,61.8 472,46.1 480.1,61.8 	"/>
	<polyline class="st1" points="473.5,61.8 473.5,71.7 446.7,71.7 492.4,71.7 	"/>
	<line class="st1" x1="438" y1="44.8" x2="458.5" y2="44.8"/>
	<polygon class="st1" points="462.4,107.6 462.4,118.5 476.1,107.6 476.1,118.5 	"/>
	<line class="st1" x1="444.9" y1="113.1" x2="462.4" y2="113.1"/>
	<line class="st1" x1="476.1" y1="112.5" x2="493.1" y2="112.5"/>
	<polygon class="st1" points="463.6,146 463.6,156.8 473.2,152.2 	"/>
	<polygon class="st1" points="473.2,152.2 468.4,163.2 479.4,163.2 	"/>
	<line class="st1" x1="473.9" y1="163.2" x2="473.9" y2="173.3"/>
	<line class="st1" x1="452" y1="152.2" x2="463.6" y2="152.2"/>
	<polyline class="st1" points="470.1,223 471.1,224 477.3,229.2 477.6,216.3 461.9,229.2 462,216.3 470.1,223 470.1,210.9 
		460.7,206.4 479.4,204 464.9,200.8 476,198.3 468.4,196.1 	"/>
	<line class="st1" x1="441.8" y1="222.9" x2="462" y2="222.9"/>
	<line class="st1" x1="477.4" y1="222.9" x2="496.7" y2="222.9"/>
	<line class="st1" x1="433.9" y1="257.6" x2="440.4" y2="257.6"/>
	<line class="st1" x1="447.1" y1="257.6" x2="463.1" y2="257.6"/>
	<polyline class="st1" points="506.7,247.3 477.4,247.3 477.4,245.4 463.1,245.4 	"/>
	<polyline class="st1" points="477.4,247.3 477.4,248.8 469.5,248.8 	"/>
	<line class="st1" x1="475.7" y1="255.9" x2="475.7" y2="258.9"/>
	<line class="st1" x1="462" y1="269.3" x2="466.1" y2="269.3"/>
	<line class="st1" x1="451.9" y1="255.2" x2="451.9" y2="259.9"/>
	<path class="st1" d="M451.9,255.2c0-5.4,5-9.8,11.2-9.8"/>
	<path class="st1" d="M451.9,259.9c0,5.2,4.5,9.4,10,9.4"/>
	<path class="st1" d="M475.7,258.9c0,5.8-4.3,10.4-9.6,10.4"/>
	<path class="st1" d="M475.7,255.9c0-3.9-2.8-7.1-6.2-7.1"/>
	<circle class="st1" cx="472.6" cy="291.9" r="12.7"/>
	<polygon class="st1" points="443.6,285.2 443.6,296.8 453.2,291 	"/>
	<polygon class="st1" points="495.5,285.2 495.5,296.3 505.1,290.8 	"/>
	<line class="st1" x1="514.1" y1="290.8" x2="505.1" y2="290.8"/>
	<line class="st1" x1="495.5" y1="291.9" x2="485.3" y2="291.9"/>
	<polyline class="st1" points="453.2,291 459.1,291 460,290.8 	"/>
	<line class="st1" x1="430.8" y1="291.9" x2="443.6" y2="291.9"/>
	<path class="st1" d="M469.7,297.4c0.2,1.7,1.8,3.3,3.2,3.3c1.6,0,3.1-2.3,3.2-4.2c0-1.5-0.9-2.7-2.6-5c-2.6-3.3-3.9-3.7-3.8-5
		c0.1-2.1,3.4-4.4,5.3-3.6c1.3,0.6,1.7,2.6,1.6,4.2C476,292.2,469.3,293.7,469.7,297.4z"/>
	<polygon points="677,-383.8 685.7,-383.8 681.4,-389.9 	"/>
	<polygon points="662.7,-365.1 662.7,-356.1 671.3,-360.6 	"/>
	<polygon points="676,-318.9 685.8,-318.9 680.9,-310.4 	"/>
	<polygon points="670.7,-286.7 670.7,-274.8 680.7,-280.8 	"/>
	<line class="st3" x1="672.8" y1="-348.8" x2="689" y2="-348.8"/>
	<line class="st3" x1="689" y1="-344.7" x2="686.4" y2="-344.7"/>
	<line class="st3" x1="679.9" y1="-344.7" x2="672.8" y2="-344.7"/>
	<line class="st3" x1="678.2" y1="-340.2" x2="687.1" y2="-340.2"/>
	<line class="st3" x1="681.4" y1="-335.8" x2="674.7" y2="-335.8"/>
	<polygon class="st3" points="687.7,-329.4 672.8,-329.4 672.8,-373.6 689,-373.6 689,-329.4 	"/>
	<line class="st3" x1="680.9" y1="-329.4" x2="680.9" y2="-318.9"/>
	<line class="st3" x1="672.8" y1="-360.6" x2="655.7" y2="-360.6"/>
	<line class="st3" x1="680.9" y1="-373.6" x2="680.9" y2="-383.8"/>
	<line class="st3" x1="650.8" y1="-280.8" x2="698.7" y2="-280.8"/>
	<polygon class="st3" points="669,-217.2 669,-203.6 681.4,-210.4 	"/>
	<line class="st3" x1="650.8" y1="-209.6" x2="669" y2="-209.6"/>
	<line class="st3" x1="681.4" y1="-210.4" x2="695.6" y2="-210.4"/>
	<polygon class="st1" points="649.1,-148.4 649.1,-125.8 695.2,-125.8 695.2,-148.4 656.5,-148.4 	"/>
	<path class="st1" d="M656.7-157.3l-0.2,9L656.7-157.3z"/>
	<polygon class="st1" points="652.1,-157.3 660.5,-157.3 656.7,-165.3 	"/>
	<polyline class="st1" points="647.7,-167.3 648,-171.3 656.3,-166.5 647.7,-162.9 647.7,-167.3 639.7,-167.3 	"/>
	<polyline class="st1" points="687.6,-157.3 688.4,-157.3 692,-157.3 687.6,-163.9 683.6,-157.3 687.6,-157.3 687.6,-149 	"/>
	<polyline class="st1" points="696.4,-167.1 696.2,-167.9 696.2,-170.9 688.3,-166 696.4,-162.9 696.4,-167.1 704.1,-167.1 	"/>
	<polyline class="st1" points="686.5,-125.8 695.2,-134.9 649.1,-134.9 	"/>
	<line class="st1" x1="677.3" y1="-125.8" x2="686.2" y2="-134.9"/>
	<line class="st1" x1="668.5" y1="-125.8" x2="677.3" y2="-134.9"/>
	<line class="st1" x1="659.1" y1="-125.8" x2="667.6" y2="-134.9"/>
	<polyline class="st1" points="658.6,-134.9 649.1,-125.8 649.1,-121.3 	"/>
	<line class="st1" x1="695.2" y1="-125.8" x2="695.2" y2="-120.2"/>
	<polygon class="st1" points="687.9,-94.7 693.8,-97.8 693.8,-94.6 693.8,-91.4 	"/>
	<line class="st1" x1="693.8" y1="-94.6" x2="701.2" y2="-94.6"/>
	<polygon class="st1" points="683.7,-86.9 686.9,-86.9 690.8,-86.9 687.3,-93.7 	"/>
	<line class="st1" x1="686.8" y1="-79.2" x2="686.9" y2="-86.9"/>
	<polygon class="st1" points="632.1,-58.9 639.1,-58.9 635.6,-65.1 	"/>
	<line class="st1" x1="636.1" y1="-58.9" x2="636.1" y2="-53.9"/>
	<polygon class="st1" points="628.1,-71.1 628.1,-67.6 628.1,-64.1 634.3,-66.7 	"/>
	<line class="st1" x1="618.6" y1="-67.6" x2="628.1" y2="-67.6"/>
	<polyline class="st1" points="653.6,-53.9 652.3,-53.9 623.3,-53.9 623.3,-28.2 692.9,-28.2 693.4,-79.2 653.6,-79.2 653.6,-53.9 
		653.6,-47.4 	"/>
	<line class="st1" x1="653.6" y1="-67.2" x2="661.6" y2="-67.2"/>
	<line class="st1" x1="669.7" y1="-67.2" x2="662.1" y2="-59.6"/>
	<line class="st1" x1="677.8" y1="-67.2" x2="670" y2="-59.6"/>
	<line class="st1" x1="685.8" y1="-67.2" x2="677.8" y2="-59.6"/>
	<polyline class="st1" points="686.4,-59.6 686.8,-60.2 693.4,-67.2 661.6,-67.2 653.6,-59.6 686.4,-59.6 693.4,-59.6 	"/>
	<line class="st1" x1="659" y1="-10.7" x2="659" y2="13.5"/>
	<polygon class="st2" points="653.4,-4.7 664.4,-4.7 659,4.7 	"/>
	<line class="st1" x1="618.3" y1="13.5" x2="701.9" y2="13.5"/>
	<path class="st1" d="M701.6,13.5c11.2,0,20.3,8.2,20.3,18.4v9.5c0,9.3-7.7,16.9-17.2,16.9h-84.9"/>
	<line class="st1" x1="601.4" y1="31.2" x2="601.4" y2="40.8"/>
	<path class="st1" d="M601.4,40.8c0,9.7,8.2,17.5,18.4,17.5"/>
	<path class="st1" d="M601.4,31.2c0-9.8,7.6-17.7,16.9-17.7"/>
	<line class="st1" x1="739.7" y1="47.3" x2="620.5" y2="47.3"/>
	<line class="st1" x1="611.7" y1="33.7" x2="611.7" y2="39.5"/>
	<path class="st1" d="M611.7,39.5c0,4.3,3.9,7.9,8.8,7.9"/>
	<path class="st1" d="M611.7,33.7c0-4.9,3.9-8.9,8.8-8.9"/>
	<polyline class="st2" points="740.6,24.8 739.7,24.1 734.1,21.7 734.1,28.4 740.6,24.8 620.5,24.8 	"/>
	<polygon class="st2" points="733.1,44.1 727.9,47.3 733.1,49.6 	"/>
	<line class="st1" x1="659.5" y1="58.9" x2="659.5" y2="82.2"/>
	<polygon class="st2" points="653.9,65.3 664.9,65.3 659.4,73.7 	"/>
	<polygon class="st1" points="737.8,89 737.8,97.1 732,93.1 	"/>
	<line class="st1" x1="732" y1="93.1" x2="606.8" y2="93.1"/>
	<line class="st1" x1="606.8" y1="111.5" x2="689.5" y2="111.5"/>
	<line class="st1" x1="689" y1="131.3" x2="606.8" y2="131.3"/>
	<line class="st1" x1="606.8" y1="149.9" x2="732.4" y2="149.9"/>
	<polygon class="st2" points="732.4,146.1 732.4,153.7 739.7,149.9 	"/>
	<line class="st1" x1="598.8" y1="100.1" x2="598.8" y2="105.1"/>
	<line class="st1" x1="697.2" y1="119.7" x2="697.2" y2="122.9"/>
	<line class="st1" x1="598.8" y1="138.4" x2="598.8" y2="143.3"/>
	<path class="st1" d="M598.8,100.1c0-3.9,3.9-7,8.7-7"/>
	<path class="st1" d="M598.8,105.1c0,3.6,3.6,6.5,8.1,6.5"/>
	<path class="st1" d="M697.2,119.7c0-4.5-3.7-8.2-8.2-8.2"/>
	<path class="st1" d="M697.2,122.9c0,4.6-3.7,8.4-8.2,8.4"/>
	<path class="st1" d="M598.8,138.4c0-3.9,3.6-7.1,8.1-7.1"/>
	<path class="st1" d="M598.8,143.3c0,3.6,3.6,6.6,8.1,6.6"/>
	<polygon class="st1" points="656.1,194.9 661.5,186.3 666.7,194.9 	"/>
	<polyline class="st1" points="661.4,177.7 661.4,202.3 661.4,203.1 	"/>
	<line class="st1" x1="620" y1="203.1" x2="705.7" y2="203.1"/>
	<line class="st1" x1="723.3" y1="218.8" x2="723.3" y2="231"/>
	<line class="st1" x1="706.7" y1="246.4" x2="623.1" y2="246.4"/>
	<line class="st1" x1="604.3" y1="230.3" x2="604.3" y2="218.8"/>
	<line class="st1" x1="615.4" y1="221.3" x2="615.4" y2="228.6"/>
	<polygon class="st1" points="733.4,210.6 728,214 733.4,216.6 	"/>
	<line class="st1" x1="740.9" y1="214.1" x2="624.6" y2="213.6"/>
	<polygon class="st2" points="656.7,264.8 662,256.7 667.1,264.8 	"/>
	<line class="st1" x1="662.4" y1="264.8" x2="662.4" y2="270.7"/>
	<path class="st1" d="M615.4,221.3c0-4.2,4.1-7.7,9.2-7.7"/>
	<path class="st1" d="M604.3,230.3c0,8.9,8.4,16.2,18.7,16.2"/>
	<path class="st1" d="M604.3,218.8c0-8.7,7.3-15.8,16.4-15.8"/>
	<path class="st1" d="M723.3,218.8c0-8.7-7.8-15.8-17.5-15.8"/>
	<path class="st1" d="M723.3,231c0,8.5-7.4,15.5-16.5,15.5"/>
	<polygon class="st2" points="656.1,194.9 661.5,186.3 666.7,194.9 	"/>
	<polygon class="st2" points="733.4,210.6 733.4,216.6 728,214 	"/>
	<line class="st1" x1="662" y1="256.7" x2="662" y2="246.4"/>
	<polygon class="st2" points="735.2,233.3 735.2,238.4 740.5,235.7 	"/>
	<path class="st1" d="M735.2,235.3l-111.2,0.4c-4.8,0-8.7-3.2-8.7-7.1"/>
	<line class="st1" x1="439.6" y1="-119.2" x2="439.6" y2="-133.3"/>
	<line class="st1" x1="478.5" y1="-110.8" x2="503.4" y2="-110.8"/>
	<line class="st1" x1="478" y1="-195.4" x2="478" y2="-180.3"/>
	<line class="st1" x1="435.5" y1="-195.4" x2="435.5" y2="-180.3"/>
	<line class="st1" x1="422.5" y1="-376.2" x2="422.3" y2="-353.7"/>
	<polygon class="st2" points="432.3,-192.8 438.6,-192.8 435.4,-187.8 	"/>
	<polygon class="st2" points="474.3,-312.7 482,-312.7 478,-318.1 	"/>
	<line class="st1" x1="478" y1="-318.1" x2="478" y2="-322.8"/>
	<polygon class="st2" points="14.6,30.3 14.6,40.6 22.2,35.4 	"/>
	<polygon class="st2" points="85.9,15.7 85.9,26 95.3,20.9 	"/>
	<line class="st1" x1="4.7" y1="35.4" x2="13.8" y2="35.4"/>
	<line class="st1" x1="23.4" y1="35.4" x2="45.9" y2="35.4"/>
	<polyline class="st1" points="107.8,20.9 66.3,20.9 66.3,18.2 45.9,18.2 	"/>
	<polyline class="st1" points="66.3,20.9 66.3,23 55.1,23 	"/>
	<line class="st1" x1="63.9" y1="33.1" x2="63.9" y2="37.2"/>
	<line class="st1" x1="44.4" y1="51.9" x2="50.3" y2="51.9"/>
	<line class="st1" x1="30.1" y1="32" x2="30.1" y2="38.7"/>
	<path class="st1" d="M30.1,32c0-7.6,7.1-13.8,15.8-13.8"/>
	<path class="st1" d="M30.1,38.7c0,7.3,6.4,13.3,14.2,13.3"/>
	<path class="st1" d="M63.9,37.2c0,8.2-6.1,14.8-13.6,14.8"/>
	<path class="st1" d="M63.9,33.1c0-5.6-3.9-10.1-8.8-10.1"/>
</g>
</svg>
