<?xml version="1.0" encoding="utf-8"?>
<!-- Generator: Adobe Illustrator 25.0.0, SVG Export Plug-In . SVG Version: 6.00 Build 0)  -->
<svg version="1.1" id="Слой_1" xmlns="http://www.w3.org/2000/svg" xmlns:xlink="http://www.w3.org/1999/xlink" x="0px" y="0px"
	 viewBox="0 0 110.8 65.3" style="enable-background:new 0 0 110.8 65.3;" xml:space="preserve">
<style type="text/css">
	.st0{display:none;}
	.st1{fill:none;stroke:#020202;stroke-miterlimit:10;}
	.st2{stroke:#020202;stroke-miterlimit:10;}
	.st3{fill:none;stroke:#000000;stroke-miterlimit:10;}
</style>
<g id="Слой_8">
	<polygon class="st2" points="32.3,16.2 34.8,20.8 38.1,16.2 	"/>
	<polygon class="st2" points="96.8,39 96.8,44.6 102.2,41.8 	"/>
	<polygon class="st2" points="7.5,39 7.5,44.6 12.3,41 	"/>
	<line class="st1" x1="28" y1="27.4" x2="81.3" y2="27.4"/>
	<line class="st1" x1="82.5" y1="54.5" x2="29.3" y2="54.5"/>
	<line class="st1" x1="12.3" y1="41" x2="96.8" y2="41"/>
	<line class="st1" x1="18.2" y1="38.1" x2="18.2" y2="43.8"/>
	<line class="st1" x1="92.8" y1="39" x2="92.8" y2="43.8"/>
	<line class="st1" x1="102.2" y1="41.8" x2="106.9" y2="41.8"/>
	<line class="st1" x1="7.5" y1="41.4" x2="3.9" y2="41.4"/>
	<path class="st1" d="M18.2,38.1c0-5.9,4.4-10.6,9.9-10.6"/>
	<path class="st1" d="M18.2,43.8c0,5.9,5,10.8,11.2,10.8"/>
	<path class="st1" d="M92.8,43.8c0,5.9-4.6,10.8-10.3,10.8"/>
	<path class="st1" d="M92.8,39c0-6.4-5.2-11.6-11.5-11.6"/>
	<line class="st1" x1="34.8" y1="20.8" x2="34.8" y2="27.4"/>
	<line class="st1" x1="73.8" y1="22.4" x2="73.8" y2="27.4"/>
	<line class="st1" x1="35.2" y1="16.2" x2="35.2" y2="13.2"/>
	<polygon class="st2" points="70.5,22.4 77.5,22.4 73.8,17.5 	"/>
	<line class="st1" x1="73.8" y1="17.5" x2="73.8" y2="13.2"/>
</g>
</svg>
