<?xml version="1.0" encoding="utf-8"?>
<!-- Generator: Adobe Illustrator 25.0.0, SVG Export Plug-In . SVG Version: 6.00 Build 0)  -->
<svg version="1.1" id="Слой_1" xmlns="http://www.w3.org/2000/svg" xmlns:xlink="http://www.w3.org/1999/xlink" x="0px" y="0px"
	 viewBox="0 0 110.8 65.3" style="enable-background:new 0 0 110.8 65.3;" xml:space="preserve">
<style type="text/css">
	.st0{display:none;}
	.st1{fill:none;stroke:#020202;stroke-miterlimit:10;}
	.st2{stroke:#020202;stroke-miterlimit:10;}
	.st3{fill:none;stroke:#000000;stroke-miterlimit:10;}
</style>
<g id="Слой_2_1_">
</g>
<g id="Слой_3" class="st0">
</g>
<g id="Слой_4">
</g>
<g id="Слой_5">
</g>
<g id="Слой_6" class="st0">
</g>
<g id="Слой_7">
</g>
<g id="Слой_8">
	<polygon class="st2" points="31.1,17.9 34.7,22.3 37.7,17.9 	"/>
	<polygon class="st2" points="74.3,20.1 71.5,24 77.6,24 	"/>
	<polygon class="st2" points="97.4,40 97.4,45.3 103,42.7 	"/>
	<polygon class="st2" points="6,40 6,45.3 10.6,42.7 	"/>
	<polyline class="st1" points="34.4,29.1 34.4,15.1 34.4,17.9 	"/>
	<line class="st1" x1="74.3" y1="20.1" x2="74.3" y2="15.1"/>
	<line class="st1" x1="26.7" y1="29.1" x2="82.7" y2="29.1"/>
	<polyline class="st1" points="34.4,29.1 34.4,41.2 74.3,41.2 74.3,29.1 74.3,24 	"/>
	<line class="st1" x1="93.4" y1="40" x2="93.4" y2="45.3"/>
	<line class="st1" x1="93.4" y1="42.7" x2="97.4" y2="42.7"/>
	<line class="st1" x1="103" y1="42.7" x2="107.8" y2="42.7"/>
	<line class="st1" x1="17.3" y1="40" x2="17.3" y2="45.3"/>
	<line class="st1" x1="10.6" y1="42.7" x2="16.9" y2="42.7"/>
	<line class="st1" x1="5.5" y1="42.7" x2="3" y2="42.7"/>
	<line class="st1" x1="26.7" y1="54.9" x2="83.2" y2="54.9"/>
	<path class="st1" d="M17.3,40c0-6.1,4.2-11,9.4-11"/>
	<path class="st1" d="M17.3,45.3c0,5.3,4.2,9.6,9.4,9.6"/>
	<path class="st1" d="M93.4,44.8c0,5.6-4.5,10.2-10.2,10.2"/>
	<path class="st1" d="M93.4,40c0-6.1-5.1-11-11.4-11"/>
</g>
</svg>
