<?xml version="1.0" encoding="utf-8"?>
<!-- Generator: Adobe Illustrator 25.2.3, SVG Export Plug-In . SVG Version: 6.00 Build 0)  -->
<svg version="1.1" xmlns="http://www.w3.org/2000/svg" xmlns:xlink="http://www.w3.org/1999/xlink" x="0px" y="0px"
	 viewBox="0 0 329 232" style="enable-background:new 0 0 329 232;" xml:space="preserve">
<style type="text/css">
	.st0{display:none;}
	.st1{fill:none;stroke:#000000;stroke-miterlimit:10;}
	.st2{fill:none;}
	.st3{font-family:'MyriadPro-Regular';}
	.st4{font-size:9px;}
</style>
<g id="Слой_1" class="st0">
</g>
<g id="Слой_2">
	<polyline class="st1" points="245.67,184.5 252.67,182.5 78.71,182.5 78.67,50.5 75.67,56.5 78.67,50.5 81.28,56.5 	"/>
	<rect x="175.55" y="58.94" class="st2" width="10.88" height="12.07"/>
	<text transform="matrix(1 0 0 1 175.552 65.3338)" class="st3 st4">K</text>
	<rect x="159.09" y="86.01" class="st2" width="30.46" height="12.07"/>
	<text transform="matrix(1 0 0 1 159.0901 92.4002)" class="st3 st4">pк, tк</text>
	<rect x="149.53" y="120.12" class="st2" width="41.14" height="13.45"/>
	<text transform="matrix(1 0 0 1 149.5295 126.5101)" class="st3 st4">рпр, tпр</text>
	<rect x="150.12" y="150.44" class="st2" width="36.99" height="14.64"/>
	<text transform="matrix(1 0 0 1 150.1233 156.8279)" class="st3 st4">ро, to</text>
	<rect x="220.35" y="164.03" class="st2" width="5.93" height="7.32"/>
	<text transform="matrix(1 0 0 1 220.3537 170.4217)" class="st3 st4">1</text>
	<rect x="229.72" y="121.13" class="st2" width="9.16" height="9.5"/>
	<text transform="matrix(1 0 0 1 229.719 127.5208)" class="st3 st4">2</text>
	<rect x="218.74" y="118.35" class="st2" width="9.1" height="10.09"/>
	<text transform="matrix(1 0 0 1 218.7385 124.7405)" class="st3 st4">3</text>
	<rect x="229.32" y="86.83" class="st2" width="9.69" height="12.26"/>
	<text transform="matrix(1 0 0 1 229.3215 93.2239)" class="st3 st4">4</text>
	<rect x="130.79" y="86.56" class="st2" width="9.1" height="9.16"/>
	<text transform="matrix(1 0 0 1 130.7932 92.9495)" class="st3 st4">5</text>
	<rect x="118.46" y="110.37" class="st2" width="7.12" height="5.93"/>
	<rect x="113.56" y="88.17" class="st2" width="14.64" height="11.27"/>
	<text transform="matrix(1 0 0 1 113.5627 94.5648)" class="st3 st4">6</text>
	<rect x="114.84" y="163.26" class="st2" width="12.26" height="9.69"/>
	<text transform="matrix(1 0 0 1 114.8371 169.6522)" class="st3 st4">7</text>
	<rect x="198.19" y="163.86" class="st2" width="8.9" height="11.67"/>
	<text transform="matrix(1 0 0 1 198.1897 170.2459)" class="st3 st4">8</text>
	<rect x="247.7" y="187.33" class="st2" width="15.23" height="12.07"/>
	<text transform="matrix(1 0 0 1 247.7031 193.7197)" class="st3 st4">h</text>
	<rect x="212.46" y="135.71" class="st2" width="15.23" height="11.87"/>
	<text transform="matrix(1 0 0 1 212.4619 142.1035)" class="st3 st4">tcp</text>
	<line class="st1" x1="96" y1="161" x2="230.12" y2="161"/>
	<line class="st1" x1="240.14" y1="130.63" x2="110.38" y2="130.63"/>
	<line class="st1" x1="115.35" y1="96.91" x2="240.14" y2="96.91"/>
	<polyline class="st1" points="233.5,95.72 222.47,130.63 231.84,130.63 222.47,161 	"/>
	<line class="st1" x1="130" y1="102" x2="206.12" y2="102"/>
	<path class="st1" d="M205.5,177.5c-0.08-13.89,0.47-25.13,1-33c0.47-6.9,1.1-13.71,1-24c-0.04-3.76-0.2-11.44-2-21
		c-1.61-8.57-3.2-11.61-4-13c-3.31-5.76-8.08-9.36-11-11c-14.59-8.18-36.73,2.73-49,13c-5.99,5.01-9.99,10.67-18,22
		c-9.24,13.07-14.88,23.97-19,32c-4.54,8.86-9.87,20.28-15,34"/>
	<path class="st1" d="M219.5,134.5c-0.63-5.07-1.98-11.7-5-19c-2.18-5.26-4.69-9.59-7-13l-2-3"/>
	<line class="st1" x1="116.91" y1="95.72" x2="116.91" y2="101.07"/>
	<line class="st1" x1="116.91" y1="103.44" x2="116.91" y2="108.78"/>
	<line class="st1" x1="116.91" y1="111.35" x2="116.91" y2="116.31"/>
	<line class="st1" x1="116.91" y1="123.39" x2="116.91" y2="118.35"/>
	<line class="st1" x1="116.91" y1="125.88" x2="116.91" y2="131.92"/>
	<line class="st1" x1="116.91" y1="134.5" x2="116.91" y2="139.24"/>
	<line class="st1" x1="116.91" y1="141.65" x2="116.91" y2="147.58"/>
	<line class="st1" x1="116.91" y1="154.27" x2="116.91" y2="149.33"/>
	<line class="st1" x1="116.91" y1="156.05" x2="116.91" y2="161.99"/>
	<rect x="59.43" y="51.67" class="st2" width="21.36" height="15.23"/>
	<text transform="matrix(1 0 0 1 59.4287 58.0596)" class="st3 st4">lgP</text>
</g>
</svg>
