<!-- Generator: Adobe Illustrator 25.2.3, SVG Export Plug-In  -->
<svg version="1.1" xmlns="http://www.w3.org/2000/svg" xmlns:xlink="http://www.w3.org/1999/xlink" x="0px" y="0px" width="103px"
	 height="41.9px" viewBox="0 0 103 41.9" style="overflow:visible;enable-background:new 0 0 103 41.9;" xml:space="preserve">
<style type="text/css">
	.st0{fill:none;stroke:#020202;stroke-miterlimit:10;}
</style>
<defs>
</defs>
<path id="РЎР»РѕР№_8_1_" class="st0" d="M28.4,3l2.5,4.6L34.2,3H28.4z M92.9,25.8v5.6l5.4-2.8L92.9,25.8z M3.6,25.8v5.6l4.8-3.6
	L3.6,25.8z M24.1,14.2h53.3 M78.6,41.3H25.4 M8.4,27.8h84.5 M14.3,24.9v5.7 M88.9,25.8v4.8 M98.3,28.6h4.7 M3.6,28.2H0 M14.3,24.9
	c0-5.9,4.4-10.6,9.9-10.6 M14.3,30.6c0,5.9,5,10.8,11.2,10.8 M88.9,30.6c0,5.9-4.6,10.8-10.3,10.8 M88.9,25.8
	c0-6.4-5.2-11.6-11.5-11.6 M30.9,7.6v6.6 M69.9,9.2v5 M31.3,3V0 M66.6,9.2h7l-3.7-4.9L66.6,9.2z M69.9,4.3V0"/>
</svg>
