<!-- Generator: Adobe Illustrator 25.2.3, SVG Export Plug-In  -->
<svg version="1.1" xmlns="http://www.w3.org/2000/svg" xmlns:xlink="http://www.w3.org/1999/xlink" x="0px" y="0px" width="104.5px"
	 height="32.8px" viewBox="0 0 104.5 32.8" style="overflow:visible;enable-background:new 0 0 104.5 32.8;" xml:space="preserve">
<style type="text/css">
	.st0{fill:none;stroke:#020202;stroke-miterlimit:10;}
</style>
<defs>
</defs>
<path id="Слой_8_1_" class="st0" d="M52.5,0.5c8.78,0,15.9,7.12,15.9,15.9s-7.12,15.9-15.9,15.9s-15.9-7.12-15.9-15.9
	S43.72,0.5,52.5,0.5z M16.1,8v14.5l12-7.3L16.1,8z M81.2,8v13.8l12-6.9L81.2,8z M104.5,14.9H93.2 M81.2,16.4H68.4 M28.1,15.2h7.5
	l1.1-0.3 M0,16.4h16.1 M48.8,23.2c0.2,2.1,2.2,4.1,4,4.1c2.1,0,3.9-2.8,4-5.3c0.1-1.9-1.1-3.4-3.3-6.3c-3.2-4.2-4.9-4.6-4.8-6.3
	c0.1-2.6,4.3-5.5,6.6-4.5c1.6,0.7,2.1,3.3,2,5.3C56.7,16.7,48.3,18.5,48.8,23.2z"/>
</svg>
