<!-- Generator: Adobe Illustrator 25.2.3, SVG Export Plug-In  -->
<svg version="1.1" xmlns="http://www.w3.org/2000/svg" xmlns:xlink="http://www.w3.org/1999/xlink" x="0px" y="0px" width="104.8px"
	 height="40.4px" viewBox="0 0 104.8 40.4" style="overflow:visible;enable-background:new 0 0 104.8 40.4;" xml:space="preserve">
<style type="text/css">
	.st0{fill:none;stroke:#020202;stroke-miterlimit:10;}
</style>
<defs>
</defs>
<path id="Слой_8_1_" class="st0" d="M28.1,2.8l3.6,4.4l3-4.4H28.1z M71.3,5l-2.8,3.9h6.1L71.3,5z M94.4,24.9v5.3l5.6-2.6
	L94.4,24.9z M3,24.9v5.3l4.6-2.6L3,24.9z M31.4,14V0v2.8 M71.3,5V0 M23.7,14h56 M31.4,14v12.1h39.9V14V8.9 M90.4,24.9v5.3
	 M90.4,27.6h4 M100,27.6h4.8 M14.3,24.9v5.3 M7.6,27.6h6.3 M2.5,27.6H0 M23.7,39.8h56.5 M14.3,24.9c0-6.1,4.2-11,9.4-11 M14.3,30.2
	c0,5.3,4.2,9.6,9.4,9.6 M90.4,29.7c0,5.6-4.5,10.2-10.2,10.2 M90.4,24.9c0-6.1-5.1-11-11.4-11"/>
</svg>
