<!-- Generator: Adobe Illustrator 25.2.3, SVG Export Plug-In  -->
<svg version="1.1" xmlns="http://www.w3.org/2000/svg" xmlns:xlink="http://www.w3.org/1999/xlink" x="0px" y="0px" width="94px"
	 height="41.9px" viewBox="0 0 94 41.9" style="overflow:visible;enable-background:new 0 0 94 41.9;" xml:space="preserve">
<style type="text/css">
	.st0{fill:none;stroke:#020202;stroke-miterlimit:10;}
</style>
<defs>
</defs>
<path id="Слой_8_1_" class="st0" d="M4,4h13.1l-6.6,11.5L4,4z M77.8,23.1v12.8l11.4-6.4L77.8,23.1z M4,18.5c0.5,0,57.4,0,57.4,0
	v22.9H0.5V18.5H4z M21.7,18.5v22.9 M41.8,18.5v22.9 M27.4,18.5l4.5,4.6l4.2-4.6 M27.4,41.4l4.4-4.7l3.2,4.7 M21.7,26.7l3.3,2.8
	l-3.3,3.3 M41.8,32.8l-4.4-3l4.4-3.1 M31.9,23.1l5.5,6.7l-5.6,6.9L25,29.5L31.9,23.1z M10.5,18.5V0 M61.4,29.5H94"/>
</svg>
