<!-- Generator: Adobe Illustrator 25.2.3, SVG Export Plug-In  -->
<svg version="1.1" xmlns="http://www.w3.org/2000/svg" xmlns:xlink="http://www.w3.org/1999/xlink" x="0px" y="0px" width="104.7px"
	 height="48.58px" viewBox="0 0 104.7 48.58" style="overflow:visible;enable-background:new 0 0 104.7 48.58;"
	 xml:space="preserve">
<style type="text/css">
	.st0{fill:none;stroke:#020202;stroke-width:0.5;stroke-miterlimit:10;}
</style>
<defs>
</defs>
<path id="Слой_8_1_" class="st0" d="M102.75,0.47v6l-4.4-3L102.75,0.47z M98.35,3.47H6.15 M6.15,17.07h60.9 M66.75,31.67H6.15
	 M6.15,45.37h92.5 M98.65,42.57v5.6l5.5-2.8L98.65,42.57z M0.25,8.67v3.6 M72.75,23.07v2.4 M0.25,36.87v3.7 M0.25,8.67
	c0-2.9,2.9-5.2,6.4-5.2 M0.25,12.27c0,2.6,2.7,4.8,6,4.8 M72.75,23.07c0-3.3-2.7-6-6-6 M72.75,25.47c0,3.4-2.7,6.2-6,6.2
	 M0.25,36.87c0-2.9,2.7-5.2,6-5.2 M0.25,40.57c0,2.6,2.7,4.8,6,4.8"/>
</svg>
