<!-- Generator: Adobe Illustrator 25.2.3, SVG Export Plug-In  -->
<svg version="1.1" xmlns="http://www.w3.org/2000/svg" xmlns:xlink="http://www.w3.org/1999/xlink" x="0px" y="0px" width="91.41px"
	 height="59.4px" viewBox="0 0 91.41 59.4" style="overflow:visible;enable-background:new 0 0 91.41 59.4;" xml:space="preserve">
<style type="text/css">
	.st0{fill:none;stroke:#020202;stroke-miterlimit:10;}
</style>
<defs>
</defs>
<path id="Слой_8_1_" class="st0" d="M37.4,0v15.4 M33.8,3.8h7l-3.4,6L33.8,3.8z M11.4,15.4h53.4 M64.6,15.4
	c7.2,0,12.9,5.3,12.9,11.8v6.1c0,6-4.9,10.8-11,10.8H12.3 M0.5,26.8v6.1 M0.5,32.9c0,6.2,5.3,11.2,11.8,11.2 M0.5,26.8
	c0-6.3,4.8-11.3,10.8-11.3 M89,37.1H12.8 M7.2,28.3V32 M7.2,32c0,2.8,2.5,5,5.6,5 M7.2,28.3c0-3.1,2.5-5.7,5.6-5.7 M89.5,22.7
	L89,22.2l-3.6-1.5V25L89.5,22.7H12.8 M84.7,35l-3.3,2.1l3.3,1.4V35z M37.7,44.5v14.9 M34.1,48.5h7l-3.5,5.4L34.1,48.5z"/>
</svg>
