<!-- Generator: Adobe Illustrator 25.2.3, SVG Export Plug-In  -->
<svg version="1.1" xmlns="http://www.w3.org/2000/svg" xmlns:xlink="http://www.w3.org/1999/xlink" x="0px" y="0px" width="75.6px"
	 height="60.86px" viewBox="0 0 75.6 60.86" style="overflow:visible;enable-background:new 0 0 75.6 60.86;" xml:space="preserve">
<style type="text/css">
	.st0{fill:none;stroke:#020202;stroke-miterlimit:10;}
</style>
<defs>
</defs>
<path id="Слой_8_1_" class="st0" d="M11,27.76v26.5h54.1v-26.5H19.7H11z M19.9,17.26l-0.2,10.5L19.9,17.26z M14.5,17.26h9.9
	l-4.5-9.3L14.5,17.26z M9.4,5.56v-4.7l10.1,5.7l-10.1,4.2V5.56H0 M56.2,17.26h0.9h4.2l-5.1-7.7l-4.7,7.7H56.2v9.9 M66.3,5.86v-1
	v-3.5L57,7.06l9.3,3.7V5.86h9.3 M54.9,54.26l10.2-10.7H11 M44.1,54.26l10.5-10.7 M33.8,54.26l10.3-10.7 M22.7,54.26l10-10.7
	 M22.1,43.56L11,54.26v5.3 M65.1,54.26v6.6"/>
</svg>
