<!-- Generator: Adobe Illustrator 25.2.3, SVG Export Plug-In  -->
<svg version="1.1" xmlns="http://www.w3.org/2000/svg" xmlns:xlink="http://www.w3.org/1999/xlink" x="0px" y="0px" width="68.24px"
	 height="60.15px" viewBox="0 0 68.24 60.15" style="overflow:visible;enable-background:new 0 0 68.24 60.15;"
	 xml:space="preserve">
<style type="text/css">
	.st0{fill:none;stroke:#000000;stroke-miterlimit:10;}
</style>
<defs>
</defs>
<path id="Слой_4_1_" class="st0" d="M29.44,37.84L3.48,37.79v21.86h58.43V16.04H29.28l0.2,26.75 M14.05,37.81v-3.87
	 M10.09,33.94h7.42l-3.46-6.03L10.09,33.94z M7.48,22.79v6.9l6-2.9L7.48,22.79z M7.48,26.24H0 M29.35,25.83l32.56,0.41l-5.83,6.61
	 M36.4,26.03l-7.05,6.82h32.56 M43.02,26.24l-6.13,6.61 M49.35,26.24l-6.33,6.61 M56.08,26.24l-6.73,6.61 M57.48,15.79V9.91
	 M53.9,9.91l6.58-0.12l-3-5.42L53.9,9.91z M63.48,0.79v5.75l-6-2.87L63.48,0.79z M63.48,3.67h4.76"/>
</svg>
