<!-- Generator: Adobe Illustrator 25.2.3, SVG Export Plug-In  -->
<svg version="1.1" xmlns="http://www.w3.org/2000/svg" xmlns:xlink="http://www.w3.org/1999/xlink" x="0px" y="0px"
	 width="108.94px" height="49.46px" viewBox="0 0 108.94 49.46" style="overflow:visible;enable-background:new 0 0 108.94 49.46;"
	 xml:space="preserve">
<style type="text/css">
	.st0{fill:none;stroke:#020202;stroke-miterlimit:10;}
</style>
<defs>
</defs>
<path id="Слой_8_1_" class="st0" d="M103,0.85v2.7v2.7l4.9-2.7L103,0.85z M7.2,2.95H103 M7.2,17.45h62.6 M69.8,31.95H7.2
	 M76.3,23.15v2.5 M101.8,45.95l5.4,2.7v-5.3L101.8,45.95z M7.2,45.95h93.9h0.7 M0.5,36.55v5 M0.5,8.15v4.6 M0.5,12.75
	c0,2.6,3.3,4.7,7.5,4.7 M0.5,8.15c0-2.9,3-5.2,6.7-5.2 M0.5,36.55c0-2.5,3-4.6,6.7-4.6 M0.5,41.55c0,2.5,3,4.5,6.7,4.5 M76.3,25.65
	c0,3.5-2.9,6.2-6.6,6.2 M76.3,23.15c0-3.1-2.9-5.7-6.6-5.7"/>
</svg>
