<!-- Generator: Adobe Illustrator 25.2.3, SVG Export Plug-In  -->
<svg version="1.1" xmlns="http://www.w3.org/2000/svg" xmlns:xlink="http://www.w3.org/1999/xlink" x="0px" y="0px" width="89.95px"
	 height="60.2px" viewBox="0 0 89.95 60.2" style="overflow:visible;enable-background:new 0 0 89.95 60.2;" xml:space="preserve">
<style type="text/css">
	.st0{fill:none;stroke:#020202;stroke-miterlimit:10;}
</style>
<defs>
</defs>
<path id="Слой_8_1_" class="st0" d="M34.1,11.1l3.5-5.5l3.3,5.5H34.1z M37.5,0v15.9v0.5 M10.7,16.4h55.5 M77.6,26.6v7.9
	 M66.9,44.5H12.7 M0.5,34.1v-7.5 M7.7,28.2v4.7 M84.1,21.3l-3.5,2.2l3.5,1.7V21.3z M89,23.6l-75.3-0.3 M34.5,56.4l3.4-5.2l3.3,5.2
	H34.5z M38.1,56.4v3.8 M7.7,28.2c0-2.7,2.7-5,5.9-5 M0.5,34.1c0,5.8,5.4,10.5,12.1,10.5 M0.5,26.6c0-5.6,4.7-10.2,10.6-10.2
	 M77.6,26.6c0-5.6-5.1-10.2-11.4-10.2 M77.6,34.5c0,5.5-4.8,10-10.7,10 M34.1,11.1l3.5-5.5l3.3,5.5H34.1z M84.1,21.3v3.9l-3.5-1.7
	L84.1,21.3z M37.9,51.2v-6.7 M85.4,36v3.3l3.4-1.8L85.4,36z M85.4,37.3l-72,0.3c-3.1,0-5.6-2.1-5.6-4.6"/>
</svg>
