<!-- Generator: Adobe Illustrator 25.2.3, SVG Export Plug-In  -->
<svg version="1.1" xmlns="http://www.w3.org/2000/svg" xmlns:xlink="http://www.w3.org/1999/xlink" x="0px" y="0px" width="103.1px"
	 height="37.65px" viewBox="0 0 103.1 37.65" style="overflow:visible;enable-background:new 0 0 103.1 37.65;"
	 xml:space="preserve">
<style type="text/css">
	.st0{fill:none;stroke:#020202;stroke-miterlimit:10;}
</style>
<defs>
</defs>
<path class="st0" d="M9.9,15.45v10.3l7.6-5.2L9.9,15.45z M81.2,0.85v10.3l9.4-5.1L81.2,0.85z M0,20.55h9.1 M18.7,20.55h22.5
	 M103.1,6.05H61.6v-2.7H41.2 M61.6,6.05v2.1H50.4 M59.2,18.25v4.1 M39.7,37.05h5.9 M25.4,17.15v6.7 M25.4,17.15
	c0-7.6,7.1-13.8,15.8-13.8 M25.4,23.85c0,7.3,6.4,13.3,14.2,13.3 M59.2,22.35c0,8.2-6.1,14.8-13.6,14.8 M59.2,18.25
	c0-5.6-3.9-10.1-8.8-10.1"/>
</svg>
