<!-- Generator: Adobe Illustrator 25.2.3, SVG Export Plug-In  -->
<svg version="1.1" xmlns="http://www.w3.org/2000/svg" xmlns:xlink="http://www.w3.org/1999/xlink" x="0px" y="0px" width="105.9px"
	 height="44.7px" viewBox="0 0 105.9 44.7" style="overflow:visible;enable-background:new 0 0 105.9 44.7;" xml:space="preserve">
<style type="text/css">
	.st0{fill:none;stroke:#020202;stroke-miterlimit:10;}
</style>
<defs>
</defs>
<path id="Слой_8_1_" class="st0" d="M13.9,3.7l4.8,8.2l5-8.2H13.9z M90.6,34.8v8.7l7.3-4.4L90.6,34.8z M9,21.4h66.3 M75.3,44.2
	H9 M0.5,30.9v3.9 M84.9,30.9v3.9 M0.5,32.9h84.4 M64.3,36.6H52.4 M40.3,36.6H27 M18.1,36.6H6.8 M76.7,36.6h2.5 M73.3,40.6H61.9
	 M54.1,40.6H36.9 M29.3,40.6H12.4 M0.5,30.9c0-5.3,4.1-9.5,9.2-9.5 M0.5,34.8c0,5.2,3.8,9.4,8.5,9.4 M84.9,34.8
	c0,5.2-4.3,9.4-9.6,9.4 M84.9,30.9c0-5.3-4.3-9.5-9.6-9.5 M90.6,39.1h-6.8 M97.9,39.1h8 M18.9,0l-0.1,21.4"/>
</svg>
