<?xml version="1.0" encoding="utf-8"?>
<!-- Generator: Adobe Illustrator 25.0.0, SVG Export Plug-In . SVG Version: 6.00 Build 0)  -->
<svg version="1.1" id="Слой_1" xmlns="http://www.w3.org/2000/svg" xmlns:xlink="http://www.w3.org/1999/xlink" x="0px" y="0px"
	 viewBox="0 0 110.8 65.3" style="enable-background:new 0 0 110.8 65.3;" xml:space="preserve">
<style type="text/css">
	.st0{display:none;}
	.st1{fill:none;stroke:#020202;stroke-miterlimit:10;}
	.st2{stroke:#020202;stroke-miterlimit:10;}
	.st3{fill:none;stroke:#000000;stroke-miterlimit:10;}
</style>
<g id="Слой_8">
	<circle class="st1" cx="55.8" cy="32.5" r="15.9"/>
	<polygon class="st1" points="19.4,24.1 19.4,38.6 31.4,31.3 	"/>
	<polygon class="st1" points="84.5,24.1 84.5,37.9 96.5,31 	"/>
	<line class="st1" x1="107.8" y1="31" x2="96.5" y2="31"/>
	<line class="st1" x1="84.5" y1="32.5" x2="71.7" y2="32.5"/>
	<polyline class="st1" points="31.4,31.3 38.9,31.3 40,31 	"/>
	<line class="st1" x1="3.3" y1="32.5" x2="19.4" y2="32.5"/>
	<path class="st1" d="M52.1,39.3c0.2,2.1,2.2,4.1,4,4.1c2.1,0,3.9-2.8,4-5.3c0.1-1.9-1.1-3.4-3.3-6.3c-3.2-4.2-4.9-4.6-4.8-6.3
		c0.1-2.6,4.3-5.5,6.6-4.5c1.6,0.7,2.1,3.3,2,5.3C60,32.8,51.6,34.6,52.1,39.3z"/>
</g>
</svg>
