<?xml version="1.0" encoding="utf-8"?>
<!-- Generator: Adobe Illustrator 25.0.0, SVG Export Plug-In . SVG Version: 6.00 Build 0)  -->
<svg version="1.1" id="Слой_1" xmlns="http://www.w3.org/2000/svg" xmlns:xlink="http://www.w3.org/1999/xlink" x="0px" y="0px"
	 viewBox="0 0 110.8 65.3" style="enable-background:new 0 0 110.8 65.3;" xml:space="preserve">
<style type="text/css">
	.st0{display:none;}
	.st1{fill:none;stroke:#020202;stroke-miterlimit:10;}
	.st2{stroke:#020202;stroke-miterlimit:10;}
	.st3{fill:none;stroke:#000000;stroke-miterlimit:10;}
</style>
<g id="Слой_8">
	<polygon class="st1" points="104.9,12 104.9,14.7 104.9,17.4 109.8,14.7 	"/>
	<line class="st1" x1="9.1" y1="14.1" x2="104.9" y2="14.1"/>
	<line class="st1" x1="9.1" y1="28.6" x2="71.7" y2="28.6"/>
	<line class="st1" x1="71.7" y1="43.1" x2="9.1" y2="43.1"/>
	<line class="st1" x1="78.2" y1="34.3" x2="78.2" y2="36.8"/>
	<polygon class="st2" points="103.7,57.1 109.1,59.8 109.1,54.5 	"/>
	<polyline class="st1" points="9.1,57.1 103,57.1 103.7,57.1 	"/>
	<line class="st1" x1="2.4" y1="47.7" x2="2.4" y2="52.7"/>
	<line class="st1" x1="2.4" y1="19.3" x2="2.4" y2="23.9"/>
	<path class="st1" d="M2.4,23.9c0,2.6,3.3,4.7,7.5,4.7"/>
	<path class="st1" d="M2.4,19.3c0-2.9,3-5.2,6.7-5.2"/>
	<path class="st1" d="M2.4,47.7c0-2.5,3-4.6,6.7-4.6"/>
	<path class="st1" d="M2.4,52.7c0,2.5,3,4.5,6.7,4.5"/>
	<path class="st1" d="M78.2,36.8c0,3.5-2.9,6.2-6.6,6.2"/>
	<path class="st1" d="M78.2,34.3c0-3.1-2.9-5.7-6.6-5.7"/>
</g>
</svg>
