<?xml version="1.0" encoding="utf-8"?>
<!-- Generator: Adobe Illustrator 25.0.0, SVG Export Plug-In . SVG Version: 6.00 Build 0)  -->
<svg version="1.1" id="Слой_1" xmlns="http://www.w3.org/2000/svg" xmlns:xlink="http://www.w3.org/1999/xlink" x="0px" y="0px"
	 viewBox="0 0 110.8 65.3" style="enable-background:new 0 0 110.8 65.3;" xml:space="preserve">
<style type="text/css">
	.st0{display:none;}
	.st1{fill:none;stroke:#020202;stroke-miterlimit:10;}
	.st2{stroke:#020202;stroke-miterlimit:10;}
	.st3{fill:none;stroke:#000000;stroke-miterlimit:10;}
</style>
<g id="Слой_8">
	<polygon class="st1" points="44.7,14.4 48.2,8.9 51.5,14.4 	"/>
	<polyline class="st1" points="48.1,3.3 48.1,19.2 48.1,19.7 	"/>
	<line class="st1" x1="21.3" y1="19.7" x2="76.8" y2="19.7"/>
	<line class="st1" x1="88.2" y1="29.9" x2="88.2" y2="37.8"/>
	<line class="st1" x1="77.5" y1="47.8" x2="23.3" y2="47.8"/>
	<line class="st1" x1="11.1" y1="37.4" x2="11.1" y2="29.9"/>
	<line class="st1" x1="18.3" y1="31.5" x2="18.3" y2="36.2"/>
	<polygon class="st1" points="94.7,24.6 91.2,26.8 94.7,28.5 	"/>
	<line class="st1" x1="99.6" y1="26.9" x2="24.3" y2="26.6"/>
	<polygon class="st2" points="45.1,59.7 48.5,54.5 51.8,59.7 	"/>
	<line class="st1" x1="48.7" y1="59.7" x2="48.7" y2="63.5"/>
	<path class="st1" d="M18.3,31.5c0-2.7,2.7-5,5.9-5"/>
	<path class="st1" d="M11.1,37.4c0,5.8,5.4,10.5,12.1,10.5"/>
	<path class="st1" d="M11.1,29.9c0-5.6,4.7-10.2,10.6-10.2"/>
	<path class="st1" d="M88.2,29.9c0-5.6-5.1-10.2-11.4-10.2"/>
	<path class="st1" d="M88.2,37.8c0,5.5-4.8,10-10.7,10"/>
	<polygon class="st2" points="44.7,14.4 48.2,8.9 51.5,14.4 	"/>
	<polygon class="st2" points="94.7,24.6 94.7,28.5 91.2,26.8 	"/>
	<line class="st1" x1="48.5" y1="54.5" x2="48.5" y2="47.8"/>
	<polygon class="st2" points="96,39.3 96,42.6 99.4,40.8 	"/>
	<path class="st1" d="M96,40.6l-72,0.3c-3.1,0-5.6-2.1-5.6-4.6"/>
</g>
</svg>
