<?xml version="1.0" encoding="utf-8"?>
<!-- Generator: Adobe Illustrator 25.0.0, SVG Export Plug-In . SVG Version: 6.00 Build 0)  -->
<svg version="1.1" id="Слой_1" xmlns="http://www.w3.org/2000/svg" xmlns:xlink="http://www.w3.org/1999/xlink" x="0px" y="0px"
	 viewBox="0 0 798.5 526.9" style="enable-background:new 0 0 798.5 526.9;" xml:space="preserve">
<style type="text/css">
	.st0{display:none;}
	.st1{fill:none;stroke:#020202;stroke-miterlimit:10;}
	.st2{stroke:#020202;stroke-miterlimit:10;}
	.st3{fill:none;stroke:#000000;stroke-miterlimit:10;}
</style>
<g id="Слой_2_1_">
</g>
<g id="Слой_3" class="st0">
</g>
<g id="Слой_4">
</g>
<g id="Слой_5">
</g>
<g id="Слой_6" class="st0">
</g>
<g id="Слой_7">
</g>
<g id="Слой_8">
	<polygon class="st1" points="507.2,-975.4 507.2,-972.1 507.2,-968.9 512.9,-972.1 	"/>
	<line class="st1" x1="395.5" y1="-972.9" x2="507.2" y2="-972.9"/>
	<line class="st1" x1="395.5" y1="-955.7" x2="468.4" y2="-955.7"/>
	<line class="st1" x1="468.4" y1="-938.6" x2="395.5" y2="-938.6"/>
	<line class="st1" x1="476.1" y1="-949" x2="476.1" y2="-946"/>
	<polygon class="st2" points="505.8,-922 512.1,-918.8 512.1,-925.1 	"/>
	<polyline class="st1" points="395.5,-922 505,-922 505.8,-922 	"/>
	<line class="st1" x1="387.7" y1="-933.2" x2="387.7" y2="-927.2"/>
	<line class="st1" x1="387.7" y1="-966.7" x2="387.7" y2="-961.2"/>
	<path class="st1" d="M387.7-961.2c0,3.1,3.9,5.5,8.7,5.5"/>
	<path class="st1" d="M387.7-966.7c0-3.4,3.5-6.2,7.8-6.2"/>
	<path class="st1" d="M387.7-933.2c0-3,3.5-5.4,7.8-5.4"/>
	<path class="st1" d="M387.7-927.2c0,2.9,3.5,5.3,7.8,5.3"/>
	<path class="st1" d="M476.1-946c0,4.1-3.4,7.4-7.6,7.4"/>
	<path class="st1" d="M476.1-949c0-3.7-3.4-6.7-7.6-6.7"/>
	<polygon class="st2" points="406.1,-891.5 411.1,-882.9 416.3,-891.5 	"/>
	<polygon class="st2" points="486.1,-858.8 486.1,-849.7 493.8,-854.2 	"/>
	<polygon class="st2" points="420.8,-838.7 423.6,-833.6 427.3,-838.7 	"/>
	<polygon class="st2" points="492.3,-813.3 492.3,-807.1 498.4,-810.2 	"/>
	<polygon class="st2" points="393.3,-813.3 393.3,-807.1 398.7,-811.1 	"/>
	<polygon class="st2" points="420.8,-776.1 424.7,-771.1 427.9,-776.1 	"/>
	<polygon class="st2" points="467.4,-773.6 464.3,-769.1 470.9,-769.1 	"/>
	<polygon class="st2" points="492.3,-750.8 492.3,-744.7 498.4,-747.8 	"/>
	<polygon class="st2" points="393.8,-750.8 393.8,-744.7 398.7,-747.8 	"/>
	<polygon class="st2" points="466.7,-710 463.4,-705 470.3,-705 	"/>
	<polygon class="st2" points="492.3,-687.1 492.3,-680.8 498.4,-683.9 	"/>
	<polygon class="st2" points="393.1,-687.1 393.1,-680.8 398.7,-683.9 	"/>
	<polygon class="st2" points="423.5,-649.5 433.5,-649.5 428.5,-640.7 	"/>
	<polygon class="st2" points="479.9,-634.9 479.9,-625.1 488.6,-630 	"/>
	<polygon class="st2" points="429.8,-265.2 429.8,-258 435.2,-261.6 	"/>
	<polygon class="st2" points="480.2,-275.5 480.2,-268.3 486.8,-271.9 	"/>
	<line class="st1" x1="400.9" y1="-872.9" x2="470.1" y2="-872.9"/>
	<line class="st1" x1="470.1" y1="-848.9" x2="400.9" y2="-848.9"/>
	<line class="st1" x1="392.1" y1="-862.9" x2="392.1" y2="-858.8"/>
	<line class="st1" x1="480.2" y1="-862.9" x2="480.2" y2="-858.8"/>
	<line class="st1" x1="392.1" y1="-860.8" x2="480.2" y2="-860.8"/>
	<line class="st1" x1="458.7" y1="-856.9" x2="446.3" y2="-856.9"/>
	<line class="st1" x1="433.6" y1="-856.9" x2="419.8" y2="-856.9"/>
	<line class="st1" x1="410.4" y1="-856.9" x2="398.7" y2="-856.9"/>
	<line class="st1" x1="471.6" y1="-856.9" x2="474.2" y2="-856.9"/>
	<line class="st1" x1="468" y1="-852.7" x2="456.2" y2="-852.7"/>
	<line class="st1" x1="448" y1="-852.7" x2="430.1" y2="-852.7"/>
	<line class="st1" x1="422.1" y1="-852.7" x2="404.5" y2="-852.7"/>
	<path class="st1" d="M392.1-862.9c0-5.5,4.3-10,9.6-10"/>
	<path class="st1" d="M392.1-858.8c0,5.5,3.9,9.9,8.8,9.9"/>
	<path class="st1" d="M480.2-858.8c0,5.5-4.5,9.9-10,9.9"/>
	<path class="st1" d="M480.2-862.9c0-5.5-4.5-10-10-10"/>
	<line class="st1" x1="486.1" y1="-854.2" x2="479" y2="-854.2"/>
	<line class="st1" x1="493.8" y1="-854.2" x2="502.1" y2="-854.2"/>
	<line class="st1" x1="416.1" y1="-826.2" x2="475.2" y2="-826.2"/>
	<line class="st1" x1="476.5" y1="-796" x2="417.5" y2="-796"/>
	<line class="st1" x1="398.7" y1="-811.1" x2="492.3" y2="-811.1"/>
	<line class="st1" x1="405.1" y1="-814.3" x2="405.1" y2="-808"/>
	<line class="st1" x1="487.9" y1="-813.3" x2="487.9" y2="-808"/>
	<line class="st1" x1="498.4" y1="-810.2" x2="503.5" y2="-810.2"/>
	<line class="st1" x1="393.3" y1="-810.7" x2="389.3" y2="-810.7"/>
	<path class="st1" d="M405.1-814.3c0-6.6,4.9-11.9,11-11.9"/>
	<path class="st1" d="M405.1-808c0,6.6,5.5,12,12.4,12"/>
	<path class="st1" d="M487.9-808c0,6.6-5.1,12-11.5,12"/>
	<path class="st1" d="M487.9-813.3c0-7.1-5.7-12.9-12.8-12.9"/>
	<polyline class="st1" points="424.4,-763.3 424.4,-779.3 424.4,-776.1 	"/>
	<line class="st1" x1="423.6" y1="-833.6" x2="423.6" y2="-826.2"/>
	<line class="st1" x1="466.9" y1="-831.9" x2="466.9" y2="-826.2"/>
	<line class="st1" x1="424.1" y1="-838.7" x2="424.1" y2="-842"/>
	<line class="st1" x1="467.4" y1="-773.6" x2="467.4" y2="-779.3"/>
	<line class="st1" x1="416.1" y1="-763.3" x2="476.5" y2="-763.3"/>
	<polyline class="st1" points="424.4,-763.3 424.4,-749.5 467.4,-749.5 467.4,-763.3 467.4,-769.1 	"/>
	<line class="st1" x1="487.9" y1="-750.8" x2="487.9" y2="-744.7"/>
	<line class="st1" x1="487.9" y1="-747.8" x2="492.3" y2="-747.8"/>
	<line class="st1" x1="498.4" y1="-747.8" x2="503.5" y2="-747.8"/>
	<line class="st1" x1="405.9" y1="-750.8" x2="405.9" y2="-744.7"/>
	<line class="st1" x1="398.7" y1="-747.8" x2="405.5" y2="-747.8"/>
	<line class="st1" x1="393.3" y1="-747.8" x2="390.5" y2="-747.8"/>
	<line class="st1" x1="416.1" y1="-733.8" x2="477" y2="-733.8"/>
	<path class="st1" d="M405.9-750.8c0-6.9,4.5-12.5,10.1-12.5"/>
	<path class="st1" d="M405.9-744.7c0,6,4.5,11,10.1,11"/>
	<path class="st1" d="M487.9-745.4c0,6.4-4.9,11.6-10.9,11.6"/>
	<path class="st1" d="M487.9-750.8c0-6.9-5.5-12.5-12.3-12.5"/>
	<line class="st1" x1="404.6" y1="-687.1" x2="404.6" y2="-680.2"/>
	<line class="st1" x1="487.2" y1="-687.1" x2="487.2" y2="-680.2"/>
	<line class="st1" x1="498.4" y1="-683.9" x2="503.5" y2="-683.9"/>
	<polyline class="st1" points="390.5,-683.7 404.6,-683.9 487.2,-683.7 492.3,-683.7 	"/>
	<line class="st1" x1="416.1" y1="-699.5" x2="476.5" y2="-699.5"/>
	<line class="st1" x1="476.5" y1="-668.9" x2="416.1" y2="-668.9"/>
	<path class="st1" d="M404.6-687.1c0-6.8,5.4-12.4,12.1-12.4"/>
	<path class="st1" d="M404.6-680.2c0,6.3,5.4,11.3,12.1,11.3"/>
	<path class="st1" d="M487.2-680.2c0,6.3-4.8,11.3-10.7,11.3"/>
	<path class="st1" d="M487.2-687.1c0-6.8-4.8-12.4-10.7-12.4"/>
	<path class="st1" d="M423.5-638.4c0.4,0,43.9,0,43.9,0v17.5h-46.6v-17.5H423.5z"/>
	<line class="st1" x1="437" y1="-638.4" x2="437" y2="-620.9"/>
	<line class="st1" x1="452.3" y1="-638.4" x2="452.3" y2="-620.9"/>
	<polyline class="st1" points="441.4,-638.4 444.8,-634.9 448,-638.4 	"/>
	<polyline class="st1" points="441.4,-620.9 444.7,-624.5 447.2,-620.9 	"/>
	<polyline class="st1" points="437,-632.1 439.6,-630 437,-627.5 	"/>
	<polyline class="st1" points="452.3,-627.5 449,-629.8 452.3,-632.1 	"/>
	<polygon class="st1" points="444.8,-634.9 449,-629.8 444.7,-624.5 439.6,-630 	"/>
	<polygon class="st1" points="465.5,-587.4 457.9,-582.9 457.9,-578.8 465.5,-575.5 	"/>
	<line class="st1" x1="478.9" y1="-581.6" x2="465.5" y2="-581.6"/>
	<line class="st1" x1="431" y1="-581.6" x2="446.3" y2="-581.6"/>
	<polyline class="st1" points="457.9,-578.8 453.7,-578.8 453.7,-582.9 457.9,-582.9 	"/>
	<polyline class="st1" points="453.7,-578.8 446.3,-575.5 446.3,-587.4 453.7,-582.9 	"/>
	<circle class="st1" cx="464.6" cy="-540.6" r="2.2"/>
	<path class="st1" d="M462.4-541.8l-11-5.7c0,0-1,15.6,0,14.6c1.1-0.9,11-6.6,11-6.6"/>
	<line class="st1" x1="451.1" y1="-541.3" x2="431.9" y2="-541.3"/>
	<polyline class="st1" points="465.5,-538.3 472.2,-527.4 457.9,-527.4 463.8,-538.3 	"/>
	<line class="st1" x1="464.1" y1="-527.4" x2="464.1" y2="-510.3"/>
	<polygon class="st1" points="447.3,-481.8 447.3,-467 460.9,-473.1 	"/>
	<polygon class="st1" points="454.1,-457.4 460.9,-473.1 469,-457.4 	"/>
	<polyline class="st1" points="462.4,-457.4 462.4,-447.5 435.6,-447.5 481.2,-447.5 	"/>
	<line class="st1" x1="426.9" y1="-474.4" x2="447.3" y2="-474.4"/>
	<polygon class="st1" points="451.3,-411.6 451.3,-400.7 465,-411.6 465,-400.7 	"/>
	<line class="st1" x1="433.8" y1="-406.1" x2="451.3" y2="-406.1"/>
	<line class="st1" x1="465" y1="-406.7" x2="482" y2="-406.7"/>
	<polygon class="st1" points="452.5,-373.2 452.5,-362.4 462.1,-367.1 	"/>
	<polygon class="st1" points="462.1,-367.1 457.3,-356 468.3,-356 	"/>
	<line class="st1" x1="462.8" y1="-356" x2="462.8" y2="-346"/>
	<line class="st1" x1="440.9" y1="-367.1" x2="452.5" y2="-367.1"/>
	<polyline class="st1" points="458.9,-296.2 460,-295.2 466.2,-290 466.5,-303 450.8,-290 450.9,-303 458.9,-296.2 458.9,-308.4 
		449.6,-312.9 468.3,-315.2 453.8,-318.4 464.9,-320.9 457.3,-323.1 	"/>
	<line class="st1" x1="430.7" y1="-296.4" x2="450.8" y2="-296.4"/>
	<line class="st1" x1="466.3" y1="-296.4" x2="485.6" y2="-296.4"/>
	<line class="st1" x1="422.8" y1="-261.6" x2="429.3" y2="-261.6"/>
	<line class="st1" x1="436" y1="-261.6" x2="451.9" y2="-261.6"/>
	<polyline class="st1" points="495.6,-271.9 466.3,-271.9 466.3,-273.8 451.9,-273.8 	"/>
	<polyline class="st1" points="466.3,-271.9 466.3,-270.4 458.4,-270.4 	"/>
	<line class="st1" x1="464.6" y1="-263.3" x2="464.6" y2="-260.4"/>
	<line class="st1" x1="450.8" y1="-250" x2="455" y2="-250"/>
	<line class="st1" x1="440.8" y1="-264.1" x2="440.8" y2="-259.3"/>
	<path class="st1" d="M440.8-264.1c0-5.4,5-9.8,11.2-9.8"/>
	<path class="st1" d="M440.8-259.3c0,5.2,4.5,9.4,10,9.4"/>
	<path class="st1" d="M464.6-260.4c0,5.8-4.3,10.4-9.6,10.4"/>
	<path class="st1" d="M464.6-263.3c0-3.9-2.8-7.1-6.2-7.1"/>
	<circle class="st1" cx="461.5" cy="-227.3" r="12.7"/>
	<polygon class="st1" points="432.5,-234 432.5,-222.4 442.1,-228.2 	"/>
	<polygon class="st1" points="484.4,-234 484.4,-222.9 494,-228.5 	"/>
	<line class="st1" x1="503" y1="-228.5" x2="494" y2="-228.5"/>
	<line class="st1" x1="484.4" y1="-227.3" x2="474.2" y2="-227.3"/>
	<polyline class="st1" points="442.1,-228.2 448,-228.2 448.9,-228.5 	"/>
	<line class="st1" x1="419.6" y1="-227.3" x2="432.5" y2="-227.3"/>
	<path class="st1" d="M458.5-221.9c0.2,1.7,1.8,3.3,3.2,3.3c1.6,0,3.1-2.3,3.2-4.2c0-1.5-0.9-2.7-2.6-5c-2.6-3.3-3.9-3.7-3.8-5
		c0.1-2.1,3.4-4.4,5.3-3.6c1.3,0.6,1.7,2.6,1.6,4.2C464.8-227,458.2-225.6,458.5-221.9z"/>
	<polygon points="665.9,-903 674.6,-903 670.3,-909.1 	"/>
	<polygon points="651.6,-884.3 651.6,-875.3 660.2,-879.8 	"/>
	<polygon points="664.8,-838.1 674.7,-838.1 669.8,-829.6 	"/>
	<polygon points="659.6,-806 659.6,-794 666.9,-800 	"/>
	<line class="st3" x1="661.7" y1="-868" x2="677.9" y2="-868"/>
	<line class="st3" x1="677.9" y1="-863.9" x2="675.3" y2="-863.9"/>
	<line class="st3" x1="668.8" y1="-863.9" x2="661.7" y2="-863.9"/>
	<line class="st3" x1="667.1" y1="-859.5" x2="675.9" y2="-859.5"/>
	<line class="st3" x1="670.3" y1="-855" x2="663.5" y2="-855"/>
	<polygon class="st3" points="676.6,-848.7 661.7,-848.7 661.7,-892.8 677.9,-892.8 677.9,-848.7 	"/>
	<line class="st3" x1="669.8" y1="-848.7" x2="669.8" y2="-838.1"/>
	<line class="st3" x1="661.7" y1="-879.8" x2="644.5" y2="-879.8"/>
	<line class="st3" x1="669.8" y1="-892.8" x2="669.8" y2="-903"/>
	<line class="st3" x1="639.7" y1="-800" x2="687.5" y2="-800"/>
	<polygon class="st3" points="657.9,-736.4 657.9,-722.9 670.3,-729.6 	"/>
	<line class="st3" x1="639.7" y1="-728.8" x2="657.9" y2="-728.8"/>
	<line class="st3" x1="670.3" y1="-729.6" x2="684.5" y2="-729.6"/>
	<polygon class="st1" points="638,-667.6 638,-645 684,-645 684,-667.6 645.4,-667.6 	"/>
	<path class="st1" d="M645.6-676.6l-0.2,9L645.6-676.6z"/>
	<polygon class="st1" points="641,-676.6 649.3,-676.6 645.6,-684.5 	"/>
	<polyline class="st1" points="636.6,-686.5 636.9,-690.5 645.2,-685.7 636.6,-682.1 636.6,-686.5 628.6,-686.5 	"/>
	<polyline class="st1" points="676.5,-676.6 677.3,-676.6 680.8,-676.6 676.5,-683.1 672.5,-676.6 676.5,-676.6 676.5,-668.2 	"/>
	<polyline class="st1" points="685.2,-686.3 685.1,-687.1 685.1,-690.1 677.2,-685.2 685.2,-682.1 685.2,-686.3 693,-686.3 	"/>
	<polyline class="st1" points="675.4,-645 684,-654.1 638,-654.1 	"/>
	<line class="st1" x1="666.2" y1="-645" x2="675.1" y2="-654.1"/>
	<line class="st1" x1="657.4" y1="-645" x2="666.2" y2="-654.1"/>
	<line class="st1" x1="647.9" y1="-645" x2="656.4" y2="-654.1"/>
	<polyline class="st1" points="647.4,-654.1 638,-645 638,-640.6 	"/>
	<line class="st1" x1="684" y1="-645" x2="684" y2="-639.5"/>
	<polygon class="st1" points="676.8,-613.9 682.6,-617 682.6,-613.8 682.6,-610.7 	"/>
	<line class="st1" x1="682.6" y1="-613.8" x2="690.1" y2="-613.8"/>
	<polygon class="st1" points="672.6,-606.2 675.8,-606.2 679.7,-606.2 676.1,-612.9 	"/>
	<line class="st1" x1="675.6" y1="-598.4" x2="675.8" y2="-606.2"/>
	<polygon class="st1" points="621,-578.1 628,-578.1 624.5,-584.3 	"/>
	<line class="st1" x1="624.9" y1="-578.1" x2="624.9" y2="-573.1"/>
	<polygon class="st1" points="616.9,-590.3 616.9,-586.8 616.9,-583.3 623.1,-586 	"/>
	<line class="st1" x1="607.4" y1="-586.8" x2="616.9" y2="-586.8"/>
	<polyline class="st1" points="642.4,-573.1 641.2,-573.1 612.2,-573.1 612.2,-547.4 681.8,-547.4 682.3,-598.4 642.4,-598.4 
		642.4,-573.1 642.4,-566.7 	"/>
	<line class="st1" x1="642.4" y1="-586.4" x2="650.5" y2="-586.4"/>
	<line class="st1" x1="658.6" y1="-586.4" x2="651" y2="-578.8"/>
	<line class="st1" x1="666.7" y1="-586.4" x2="658.9" y2="-578.8"/>
	<line class="st1" x1="674.7" y1="-586.4" x2="666.7" y2="-578.8"/>
	<polyline class="st1" points="675.3,-578.8 675.7,-579.4 682.3,-586.4 650.5,-586.4 642.4,-578.8 675.3,-578.8 682.3,-578.8 	"/>
	<line class="st1" x1="647.8" y1="-530" x2="647.8" y2="-505.7"/>
	<polygon class="st2" points="642.3,-523.9 653.3,-523.9 647.8,-514.5 	"/>
	<line class="st1" x1="607.1" y1="-505.7" x2="690.8" y2="-505.7"/>
	<path class="st1" d="M690.4-505.7c11.2,0,20.3,8.2,20.3,18.4v9.5c0,9.3-7.7,16.9-17.2,16.9h-84.9"/>
	<line class="st1" x1="590.2" y1="-488" x2="590.2" y2="-478.4"/>
	<path class="st1" d="M590.2-478.4c0,9.7,8.2,17.5,18.4,17.5"/>
	<path class="st1" d="M590.2-488c0-9.8,7.6-17.7,16.9-17.7"/>
	<line class="st1" x1="728.6" y1="-471.9" x2="609.4" y2="-471.9"/>
	<line class="st1" x1="600.6" y1="-485.5" x2="600.6" y2="-479.8"/>
	<path class="st1" d="M600.6-479.8c0,4.3,3.9,7.9,8.8,7.9"/>
	<path class="st1" d="M600.6-485.5c0-4.9,3.9-8.9,8.8-8.9"/>
	<polyline class="st2" points="729.5,-494.4 728.6,-495.1 723,-497.5 723,-490.8 729.5,-494.4 609.4,-494.4 	"/>
	<polygon class="st2" points="721.9,-475.2 716.7,-471.9 721.9,-469.6 	"/>
	<line class="st1" x1="648.3" y1="-460.3" x2="648.3" y2="-437"/>
	<polygon class="st2" points="642.8,-453.9 653.7,-453.9 648.2,-445.6 	"/>
	<polygon class="st1" points="726.7,-430.2 726.7,-422.1 720.8,-426.2 	"/>
	<line class="st1" x1="720.8" y1="-426.2" x2="595.7" y2="-426.2"/>
	<line class="st1" x1="595.7" y1="-407.7" x2="678.4" y2="-407.7"/>
	<line class="st1" x1="677.9" y1="-387.9" x2="595.7" y2="-387.9"/>
	<line class="st1" x1="595.7" y1="-369.3" x2="721.2" y2="-369.3"/>
	<polygon class="st2" points="721.2,-373.1 721.2,-365.5 728.6,-369.3 	"/>
	<line class="st1" x1="587.6" y1="-419.1" x2="587.6" y2="-414.2"/>
	<line class="st1" x1="686" y1="-399.5" x2="686" y2="-396.3"/>
	<line class="st1" x1="587.6" y1="-380.9" x2="587.6" y2="-375.9"/>
	<path class="st1" d="M587.6-419.1c0-3.9,3.9-7,8.7-7"/>
	<path class="st1" d="M587.6-414.2c0,3.6,3.6,6.5,8.1,6.5"/>
	<path class="st1" d="M686-399.5c0-4.5-3.7-8.2-8.2-8.2"/>
	<path class="st1" d="M686-396.3c0,4.6-3.7,8.4-8.2,8.4"/>
	<path class="st1" d="M587.6-380.9c0-3.9,3.6-7.1,8.1-7.1"/>
	<path class="st1" d="M587.6-375.9c0,3.6,3.6,6.6,8.1,6.6"/>
	<polygon class="st1" points="645,-324.3 650.3,-332.9 655.5,-324.3 	"/>
	<polyline class="st1" points="650.2,-341.5 650.2,-317 650.2,-316.2 	"/>
	<line class="st1" x1="608.9" y1="-316.2" x2="694.6" y2="-316.2"/>
	<line class="st1" x1="712.2" y1="-300.4" x2="712.2" y2="-288.2"/>
	<line class="st1" x1="695.6" y1="-272.8" x2="612" y2="-272.8"/>
	<line class="st1" x1="593.2" y1="-288.9" x2="593.2" y2="-300.4"/>
	<line class="st1" x1="604.3" y1="-297.9" x2="604.3" y2="-290.6"/>
	<polygon class="st1" points="722.2,-308.6 716.8,-305.2 722.2,-302.6 	"/>
	<line class="st1" x1="729.8" y1="-305.1" x2="613.5" y2="-305.6"/>
	<polygon class="st2" points="645.6,-254.4 650.8,-262.5 655.9,-254.4 	"/>
	<line class="st1" x1="651.2" y1="-254.4" x2="651.2" y2="-248.6"/>
	<path class="st1" d="M604.3-297.9c0-4.2,4.1-7.7,9.2-7.7"/>
	<path class="st1" d="M593.2-288.9c0,8.9,8.4,16.2,18.7,16.2"/>
	<path class="st1" d="M593.2-300.4c0-8.7,7.3-15.8,16.3-15.8"/>
	<path class="st1" d="M712.2-300.4c0-8.7-7.9-15.8-17.5-15.8"/>
	<path class="st1" d="M712.2-288.2c0,8.5-7.4,15.5-16.5,15.5"/>
	<polygon class="st2" points="645,-324.3 650.3,-332.9 655.5,-324.3 	"/>
	<polygon class="st2" points="722.2,-308.6 722.2,-302.6 716.8,-305.2 	"/>
	<line class="st1" x1="650.8" y1="-262.5" x2="650.8" y2="-272.8"/>
	<polygon class="st2" points="724.1,-285.9 724.1,-280.9 729.4,-283.6 	"/>
	<path class="st1" d="M724.1-284L613-283.6c-4.8,0-8.7-3.2-8.7-7.1"/>
	<line class="st1" x1="428.5" y1="-638.4" x2="428.5" y2="-652.5"/>
	<line class="st1" x1="467.4" y1="-630" x2="492.3" y2="-630"/>
	<line class="st1" x1="466.9" y1="-714.6" x2="466.9" y2="-699.5"/>
	<line class="st1" x1="424.4" y1="-714.6" x2="424.4" y2="-699.5"/>
	<line class="st1" x1="411.3" y1="-895.4" x2="411.2" y2="-872.9"/>
	<polygon class="st2" points="421.1,-712 427.4,-712 424.3,-707.1 	"/>
	<polygon class="st2" points="463.2,-831.9 470.9,-831.9 466.9,-837.3 	"/>
	<line class="st1" x1="466.9" y1="-837.3" x2="466.9" y2="-842"/>
	<polygon class="st1" points="33.5,-504.8 37,-510.4 40.4,-504.8 	"/>
	<polyline class="st1" points="37,-515.9 37,-500 37,-499.5 	"/>
	<line class="st1" x1="10.1" y1="-499.5" x2="65.7" y2="-499.5"/>
	<line class="st1" x1="77.1" y1="-489.3" x2="77.1" y2="-481.4"/>
	<line class="st1" x1="66.3" y1="-471.4" x2="12.1" y2="-471.4"/>
	<line class="st1" x1="0" y1="-481.9" x2="0" y2="-489.3"/>
	<line class="st1" x1="7.2" y1="-487.7" x2="7.2" y2="-483"/>
	<polygon class="st1" points="83.6,-494.6 80.1,-492.4 83.6,-490.7 	"/>
	<line class="st1" x1="88.5" y1="-492.3" x2="13.1" y2="-492.7"/>
	<polygon class="st2" points="33.9,-459.5 37.3,-464.8 40.6,-459.5 	"/>
	<line class="st1" x1="37.6" y1="-459.5" x2="37.6" y2="-455.7"/>
	<path class="st1" d="M7.2-487.7c0-2.7,2.7-5,5.9-5"/>
	<path class="st1" d="M0-481.9c0,5.8,5.4,10.5,12.1,10.5"/>
	<path class="st1" d="M0-489.3c0-5.6,4.7-10.2,10.6-10.2"/>
	<path class="st1" d="M77.1-489.3c0-5.6-5.1-10.2-11.4-10.2"/>
	<path class="st1" d="M77.1-481.4c0,5.5-4.8,10-10.7,10"/>
	<polygon class="st2" points="33.5,-504.8 37,-510.4 40.4,-504.8 	"/>
	<polygon class="st2" points="83.6,-494.6 83.6,-490.7 80.1,-492.4 	"/>
	<line class="st1" x1="37.3" y1="-464.8" x2="37.3" y2="-471.4"/>
	<polygon class="st2" points="84.8,-479.9 84.8,-476.6 88.2,-478.4 	"/>
	<path class="st1" d="M84.8-478.6l-72,0.3c-3.1,0-5.6-2.1-5.6-4.6"/>
</g>
<polyline class="st1" points="141.8,66.5 141.8,438.3 642.3,438.3 "/>
</svg>
