<?xml version="1.0" encoding="utf-8"?>
<!-- Generator: Adobe Illustrator 25.0.0, SVG Export Plug-In . SVG Version: 6.00 Build 0)  -->
<svg version="1.1" id="Слой_1" xmlns="http://www.w3.org/2000/svg" xmlns:xlink="http://www.w3.org/1999/xlink" x="0px" y="0px"
	 viewBox="0 0 110.8 65.3" style="enable-background:new 0 0 110.8 65.3;" xml:space="preserve">
<style type="text/css">
	.st0{display:none;}
	.st1{fill:none;stroke:#020202;stroke-miterlimit:10;}
	.st2{stroke:#020202;stroke-miterlimit:10;}
	.st3{fill:none;stroke:#000000;stroke-miterlimit:10;}
</style>
<g id="Слой_8">
	<polygon points="52,8.2 58.6,8.2 55.3,3.6 	"/>
	<polygon points="41.2,22.4 41.2,29.2 47.7,25.8 	"/>
	<polygon points="51.2,57.3 58.7,57.3 54.9,63.8 	"/>
	<line class="st3" x1="48.8" y1="34.7" x2="61.1" y2="34.7"/>
	<line class="st3" x1="61.1" y1="37.8" x2="59.1" y2="37.8"/>
	<line class="st3" x1="54.2" y1="37.8" x2="48.8" y2="37.8"/>
	<line class="st3" x1="52.9" y1="41.2" x2="59.6" y2="41.2"/>
	<line class="st3" x1="55.3" y1="44.6" x2="50.2" y2="44.6"/>
	<polygon class="st3" points="60.1,49.4 48.8,49.4 48.8,15.9 61.1,15.9 61.1,49.4 	"/>
	<line class="st3" x1="54.9" y1="49.4" x2="55" y2="57.3"/>
	<line class="st3" x1="48.8" y1="25.8" x2="35.8" y2="25.8"/>
	<line class="st3" x1="55" y1="15.9" x2="54.9" y2="8.2"/>
</g>
</svg>
