<?xml version="1.0" encoding="utf-8"?>
<!-- Generator: Adobe Illustrator 25.0.0, SVG Export Plug-In . SVG Version: 6.00 Build 0)  -->
<svg version="1.1" id="Слой_1" xmlns="http://www.w3.org/2000/svg" xmlns:xlink="http://www.w3.org/1999/xlink" x="0px" y="0px"
	 viewBox="0 0 110.8 65.3" style="enable-background:new 0 0 110.8 65.3;" xml:space="preserve">
<style type="text/css">
	.st0{display:none;}
	.st1{fill:none;stroke:#020202;stroke-miterlimit:10;}
	.st2{stroke:#020202;stroke-miterlimit:10;}
	.st3{fill:none;stroke:#000000;stroke-miterlimit:10;}
</style>
<g id="Слой_8">
	<polygon class="st2" points="16.8,13.7 21.6,21.9 26.6,13.7 	"/>
	<polygon class="st2" points="93.5,44.8 93.5,53.5 100.8,49.1 	"/>
	<line class="st1" x1="11.9" y1="31.4" x2="78.2" y2="31.4"/>
	<line class="st1" x1="78.2" y1="54.2" x2="11.9" y2="54.2"/>
	<line class="st1" x1="3.4" y1="40.9" x2="3.4" y2="44.8"/>
	<line class="st1" x1="87.8" y1="40.9" x2="87.8" y2="44.8"/>
	<line class="st1" x1="3.4" y1="42.9" x2="87.8" y2="42.9"/>
	<line class="st1" x1="67.2" y1="46.6" x2="55.3" y2="46.6"/>
	<line class="st1" x1="43.2" y1="46.6" x2="29.9" y2="46.6"/>
	<line class="st1" x1="21" y1="46.6" x2="9.7" y2="46.6"/>
	<line class="st1" x1="79.6" y1="46.6" x2="82.1" y2="46.6"/>
	<line class="st1" x1="76.2" y1="50.6" x2="64.8" y2="50.6"/>
	<line class="st1" x1="57" y1="50.6" x2="39.8" y2="50.6"/>
	<line class="st1" x1="32.2" y1="50.6" x2="15.3" y2="50.6"/>
	<path class="st1" d="M3.4,40.9c0-5.3,4.1-9.5,9.2-9.5"/>
	<path class="st1" d="M3.4,44.8c0,5.2,3.8,9.4,8.5,9.4"/>
	<path class="st1" d="M87.8,44.8c0,5.2-4.3,9.4-9.6,9.4"/>
	<path class="st1" d="M87.8,40.9c0-5.3-4.3-9.5-9.6-9.5"/>
	<line class="st1" x1="93.5" y1="49.1" x2="86.7" y2="49.1"/>
	<line class="st1" x1="100.8" y1="49.1" x2="108.8" y2="49.1"/>
	<line class="st1" x1="21.8" y1="10" x2="21.7" y2="31.4"/>
</g>
</svg>
